<svg width="454" height="503" viewBox="0 0 454 503" fill="none" xmlns="http://www.w3.org/2000/svg">
<path d="M335.988 417.549C336.558 417.121 334.705 416.836 334.705 415.837L337.556 413.269L351.955 409.275L374.907 402L375.334 420.117L377.045 442.513L373.481 442.941C369.775 443.511 358.37 445.651 352.24 446.792C346.11 447.934 346.11 451.215 344.827 452.926C343.544 454.638 340.978 453.212 339.695 454.353C338.412 455.494 335.846 460.344 334.135 461.771C332.424 463.197 331.711 462.912 332.139 464.053C332.567 465.194 334.277 464.053 340.978 465.908C347.678 467.762 347.963 464.053 349.959 464.053C351.955 464.053 349.531 467.334 351.955 471.186C354.378 475.037 352.81 474.895 352.24 474.895C351.67 474.895 350.814 476.464 349.531 476.606C348.248 476.749 347.535 474.895 346.823 474.895C346.11 474.895 342.688 475.465 340.978 475.465C339.267 475.465 329.43 477.32 326.722 477.605C324.013 477.89 322.588 480.315 320.877 482.598C319.166 484.88 317.028 483.168 315.602 483.168C314.177 483.168 310.613 481.314 306.906 481.171C303.2 481.029 301.631 482.598 299.921 483.168C298.21 483.739 292.65 487.876 291.51 489.445C290.369 491.014 288.231 492.869 287.376 493.867C286.52 494.866 283.669 494.581 282.101 495.294C280.533 496.007 275.828 497.148 275.828 500.714C275.828 504.281 274.118 502.141 272.264 499.716C270.782 497.776 266.419 498.908 264.424 499.716L262 497.148C262.475 495.722 263.625 492.869 264.424 492.869C265.421 492.869 267.417 492.583 269.698 492.869C271.979 493.154 276.398 492.726 277.254 490.872C278.109 489.017 277.396 486.877 274.118 486.307C270.839 485.736 273.405 484.167 274.973 482.598C276.541 481.029 276.398 473.896 276.398 472.327C276.398 470.758 279.25 471.328 282.101 470.758C284.952 470.187 291.367 461.771 292.65 460.772C293.933 459.774 292.65 447.791 292.08 442.513C291.51 437.235 294.646 437.52 294.646 434.952C294.646 432.385 296.214 431.101 297.212 430.245L297.222 430.237C298.228 429.373 301.063 426.942 301.774 420.117C302.487 413.269 296.214 408.705 295.644 407.563C295.074 406.422 294.646 405.566 292.65 405.424C291.054 405.31 291.985 404.33 292.65 403.854L301.061 403.141V409.275C301.061 409.988 303.2 411.272 304.625 413.269C306.051 415.267 308.332 413.269 306.764 416.122C305.195 418.975 305.481 416.836 309.187 418.405C312.894 419.974 308.047 422.114 309.187 423.54C310.328 424.967 312.894 420.687 314.462 420.117C316.03 419.546 315.745 422.542 316.315 423.54C316.885 424.539 320.592 425.68 323.443 426.393C326.294 427.107 326.579 428.248 328.29 426.964C330.001 425.68 330.286 422.114 329.573 420.687C328.86 419.261 327.292 418.548 328.29 417.549C329.288 416.55 329.573 414.696 332.282 417.549C334.99 420.402 335.418 417.977 335.988 417.549Z" fill="#117A55"/>
<path d="M383.551 439.059C382.268 440.058 381.271 442.197 377.564 442.768L376.138 435.065L374 394.409V391.128L384.549 387.99L389.254 381C391.25 383.996 393.816 385.85 395.954 387.277C398.092 388.703 397.38 384.709 398.092 384.424C398.805 384.138 399.946 384.566 399.946 385.85C399.946 387.134 399.946 388.846 400.659 389.844C401.371 390.843 400.659 392.269 406.076 396.121C411.493 399.973 413.346 396.121 413.917 396.121C414.487 396.121 418.336 396.977 425.464 397.405C432.592 397.833 440.575 391.414 442.571 391.128C444.567 390.843 449.556 393.839 452.408 394.409C455.259 394.98 451.41 401.399 451.41 402.968C451.41 404.537 454.974 403.967 453.691 405.536C452.408 407.105 447.418 409.53 445.707 410.243C443.997 410.957 441.145 411.242 438.579 411.813C436.013 412.383 431.594 416.52 429.456 418.375C427.317 420.229 419.761 429.216 418.336 431.213C416.91 433.21 415.342 431.641 413.917 431.641C412.491 431.641 410.067 433.496 409.355 434.066C408.642 434.637 405.363 435.065 403.652 435.065C401.942 435.065 398.235 437.632 397.38 437.775C396.524 437.918 395.384 436.777 394.814 436.063C394.243 435.35 391.677 436.349 389.967 436.777L389.967 436.777C388.256 437.205 384.834 438.06 383.551 439.059Z" fill="#0A6746"/>
<path d="M222.544 323.562C223.684 322.849 224.967 317.856 224.112 317.856L340.725 317V328.697C340.725 331.836 342.436 339.254 342.436 340.537C342.436 341.821 342.293 345.958 342.436 347.385C342.578 348.811 347.568 354.517 348.281 355.944C348.994 357.37 349.421 359.225 349.279 360.794C349.136 362.363 349.136 363.219 350.989 363.076L348.281 380.622C349.326 383.713 351.446 389.895 351.56 389.895C351.674 389.895 353.223 396.171 353.983 399.31C354.648 398.739 356.521 397.598 358.688 397.598C360.854 397.598 363.772 402.543 364.96 405.016L334.595 415.572C334.595 414.859 334.167 413.232 332.457 412.434C330.746 411.635 329.748 409.818 329.463 409.01C328.18 408.297 330.176 407.726 330.176 406.442C330.176 405.158 327.325 404.445 326.469 403.589C325.614 402.733 327.752 402.305 328.18 400.593C328.522 399.224 327.182 399.167 326.469 399.31C326.042 399.452 324.816 399.652 323.333 399.31C321.48 398.882 321.48 394.459 321.48 392.748C321.48 391.036 318.914 390.18 317.345 389.895C315.777 389.609 316.205 387.327 316.205 385.187C316.205 383.475 312.594 383.523 310.788 383.761C310.55 382.952 309.875 381.193 309.077 380.622C308.279 380.052 305.323 380.385 303.945 380.622H296.104C295.534 380.622 295.676 377.341 294.536 377.341C293.396 377.341 286.98 376.485 284.272 376.485C282.105 376.485 280.518 374.964 279.995 374.203H273.152H265.739C263.601 374.203 255.475 373.062 252.481 373.062C249.487 373.062 247.206 370.494 245.638 370.494C244.07 370.494 242.93 369.781 242.787 370.494C242.673 371.065 245.021 373.204 246.209 374.203C245.828 374.916 244.868 376.371 244.07 376.485C243.072 376.628 241.932 373.347 240.791 372.491C239.651 371.635 240.791 367.213 240.791 364.503C240.791 362.334 238.605 362.934 237.512 363.504C235.849 363.932 232.323 364.731 231.525 364.503C230.527 364.217 232.808 362.22 233.093 361.364C233.378 360.509 237.085 360.081 237.512 359.367C237.94 358.654 235.231 353.376 234.091 352.377C233.179 351.579 232 352.045 231.525 352.377L229.672 350.095C229.149 350.19 227.79 350.323 226.535 350.095C224.967 349.81 225.68 347.242 226.535 346.243C227.22 345.445 226.82 344.579 226.535 344.246L230.67 339.111C227.771 336.02 221.831 329.782 221.261 329.553C220.548 329.268 221.403 324.275 222.544 323.562Z" fill="#1CA474"/>
<path d="M68.7135 76.2814C81.5438 60.8751 120.89 14.7988 136.001 0.391077C138.335 -1.89134 141.846 6.52507 142.987 7.38098C144.127 8.23688 151.825 13.087 154.249 13.3723C156.672 13.6576 157.243 16.0827 157.813 17.6518C158.383 19.221 162.945 26.9242 163.8 27.3521C164.656 27.7801 163.943 30.2051 164.656 30.3478C165.369 30.4904 164.371 33.2008 162.945 33.2008C161.519 33.2008 155.96 40.904 154.249 42.4731C152.538 44.0423 154.392 49.6057 155.96 50.7469C154.962 48.0365 155.247 43.757 156.387 42.4731C157.528 41.1893 165.083 32.9155 168.077 33.2008C171.071 33.4861 170.501 35.7685 171.499 36.9097C172.497 38.0509 178.484 36.9097 180.48 36.9097C182.476 36.9097 188.748 42.1878 192.17 43.757C195.591 45.3261 199.013 46.4674 201.579 47.038C204.145 47.6086 205.57 49.7483 208.992 52.744C212.413 55.7397 216.405 58.45 217.403 58.5927C218.401 58.7353 219.826 59.7339 218.828 60.8751C217.83 62.0163 212.556 67.1518 211.558 74.5696C213.981 67.0091 218.686 61.4457 222.107 60.8751C223.818 60.8751 224.816 62.7296 231.801 64.4414C238.787 66.1532 241.78 61.0178 245.202 60.8751C247.939 60.761 248.908 62.0639 249.051 62.7296C250.191 63.8708 249.051 63.8708 249.906 65.012C251.759 65.5826 252.615 62.7296 253.755 62.7296C254.896 62.7296 253.898 64.1561 257.177 64.4414C260.456 64.7267 263.164 62.8722 265.16 62.7296C267.156 62.5869 268.011 66.4385 269.437 66.8665C270.862 67.2944 271.718 65.012 272.716 65.012C273.714 65.012 277.563 67.7224 279.131 69.2915C280.699 70.8607 281.269 73.8564 281.269 75.1402C281.269 76.4241 282.124 80.4183 281.269 84.9831C280.414 89.548 278.133 92.9716 277.563 94.2555C276.992 95.5393 276.85 100.675 276.992 102.387C277.135 104.098 281.269 107.522 283.408 112.515C285.546 117.508 282.695 120.075 282.124 122.5C281.554 124.925 283.408 131.059 284.12 133.627C284.833 136.195 284.12 136.908 282.695 137.051C281.269 137.193 279.986 136.623 280.556 138.049C281.127 139.476 281.127 145.467 281.269 147.036C281.412 148.605 284.548 151.031 287.114 152.742C289.68 154.454 288.825 156.737 289.252 158.02C289.68 159.304 294.099 162.443 295.81 164.012C297.521 165.581 297.093 166.437 296.38 167.15C295.668 167.863 297.093 170.574 295.81 170.574C294.527 170.574 288.825 172.714 287.542 173.855C286.259 174.996 285.403 178.277 287.969 175.994C290.535 173.712 296.095 173.712 297.093 173.855C298.091 173.997 301.798 178.848 304.221 180.131C306.645 181.415 306.502 179.703 307.357 180.131C308.213 180.559 309.638 183.84 311.349 185.124C313.06 186.408 314.913 188.262 318.335 194.539C321.756 200.816 320.045 201.529 319.903 202.956C319.76 204.382 315.911 206.522 315.483 207.663C315.056 208.804 314.2 210.231 312.775 210.373C311.349 210.516 310.779 211.229 309.068 213.94C307.357 216.65 299.374 224.638 299.374 225.637C300.087 225.209 306.645 218.362 307.928 217.791C308.954 217.335 311.112 214.368 312.062 212.941C314.771 210.849 320.672 206.408 322.611 205.381C325.035 204.097 329.312 207.378 332.448 209.517C335.584 211.657 334.729 211.515 336.725 209.517C338.686 207.555 338.307 207.246 336.806 206.018L336.725 205.951C335.156 204.667 336.44 203.669 337.58 202.385C338.492 201.358 340.431 200.53 341.286 200.245V295.251V317.504L224.958 318.503C224.103 318.503 209.419 318.646 207.566 318.503C205.713 318.36 205 318.075 203.147 317.504C201.293 316.934 199.868 313.653 197.872 310.657C195.876 307.661 199.013 305.664 196.161 304.095C193.31 302.526 194.023 301.242 194.023 298.96C194.023 296.677 191.029 292.255 190.316 291.542C189.604 290.829 187.608 292.255 186.752 293.111C185.897 293.967 186.04 290.829 184.471 290.829C182.903 290.829 181.478 292.826 180.622 292.255C179.767 291.684 178.199 290.829 175.918 291.542C173.637 292.255 172.354 291.542 171.499 290.829C170.643 290.115 164.798 287.976 163.8 287.262C162.803 286.549 161.092 287.262 159.239 287.262C157.385 287.262 155.817 282.697 155.817 283.553C155.817 284.409 153.394 284.98 153.394 285.408C153.394 285.836 151.255 286.549 151.113 287.262C150.97 287.976 152.823 289.973 153.394 290.829C153.964 291.684 153.821 293.539 153.394 294.823C152.966 296.107 150.542 297.533 146.836 299.816C143.129 302.098 146.836 297.533 148.547 295.964C149.915 294.709 147.976 291.447 146.836 289.973L144.27 297.533C142.892 300.244 139.537 305.664 137.142 305.664C134.747 305.664 138.14 301.195 140.136 298.96H137.142L130.156 301.813L127.59 313.082L120.462 317.504L114.332 314.937L110.483 313.082C107.632 313.7 101.074 314.937 97.653 314.937C94.2316 314.937 94.7068 310.847 95.372 308.803C93.7564 309.373 90.1544 310.514 88.6718 310.514C87.1892 310.514 83.112 312.226 81.2587 313.082L75.1287 310.514C73.608 310.514 70.5668 309.858 70.5668 307.233C70.5668 303.952 68.0007 305.664 64.5793 305.664C61.1579 305.664 63.5814 308.803 62.0132 310.514C60.4451 312.226 58.1641 305.95 58.1641 301.813C58.1641 298.503 51.3213 296.535 47.8999 295.964C45.1912 295.441 39.6314 295.022 39.0612 297.533C38.3484 300.671 30.7928 301.099 30.2225 298.96C29.7663 297.248 26.9912 296.249 25.6606 295.964C23.3797 295.441 18.1905 294.395 15.6815 294.395C12.5452 294.395 7.55563 288.546 7.27051 286.692C7.04242 285.208 3.3739 284.552 1.56815 284.409L0 151.601C4.46685 147.179 15.3394 136.537 23.0946 129.348C32.7886 120.361 55.8832 91.6877 68.7135 76.2814Z" fill="#22C48B"/>
<path d="M371.676 372.561C377.521 372.989 385.504 375.129 387.215 378.553L389.353 380.407L385.504 387.54C383.224 388.871 379.004 391.391 376.381 391.391C373.758 391.391 375.193 398.714 375.24 403.231C373.625 403.897 365.632 407.254 365.404 405.656C365.119 403.659 360.129 400.093 360.129 398.809C360.129 397.525 355.709 399.237 354.569 399.665C353.428 400.093 351.717 393.388 351.717 390.678C351.717 387.968 348.296 382.975 348.011 380.407C347.783 378.353 351.052 367.949 351.717 363.004C353.571 362.861 355.566 366.855 357.135 368.852C358.703 370.85 359.273 371.135 360.841 371.277C362.409 371.42 365.831 372.133 371.676 372.561Z" fill="#188A62"/>
</svg>
