<?xml version="1.0" standalone="no"?>
<!DOCTYPE svg PUBLIC "-//W3C//DTD SVG 20010904//EN"
 "http://www.w3.org/TR/2001/REC-SVG-20010904/DTD/svg10.dtd">
<svg version="1.0" xmlns="http://www.w3.org/2000/svg"
 width="512.000000pt" height="512.000000pt" viewBox="0 0 512.000000 512.000000"
 preserveAspectRatio="xMidYMid meet">
<metadata>
Created by potrace 1.16, written by Peter Selinger 2001-2019
</metadata>
<g transform="translate(0.000000,512.000000) scale(0.100000,-0.100000)"
fill="#000000" stroke="none">
<path d="M0 4835 c0 -255 2 -285 16 -285 12 0 15 6 10 25 -4 17 -2 25 7 25 7
0 24 -11 37 -25 13 -14 29 -25 37 -25 7 0 13 -6 13 -13 0 -8 -26 -22 -60 -32
-67 -20 -78 -35 -25 -35 42 0 93 20 137 53 25 19 41 24 66 20 39 -6 52 -29 27
-47 -17 -12 -16 -14 6 -30 19 -13 24 -26 24 -57 0 -40 1 -41 50 -60 59 -22
115 -25 115 -6 0 19 -33 47 -53 47 -23 0 -22 33 2 55 18 15 24 16 50 4 17 -8
31 -19 31 -25 0 -27 39 -47 81 -41 32 4 45 1 60 -14 27 -27 67 -35 86 -16 15
15 14 17 -11 28 -18 9 -26 19 -23 30 6 24 -46 74 -68 65 -12 -4 -18 0 -22 14
-6 21 -54 50 -83 50 -10 0 -31 7 -46 15 -16 8 -50 15 -76 15 -56 0 -64 16 -13
26 20 3 35 12 35 20 0 14 -10 17 -59 18 -13 1 -26 7 -29 15 -3 10 1 12 17 8
28 -7 38 15 23 49 -9 19 -19 24 -47 24 -31 0 -35 3 -27 17 7 12 25 17 66 18
48 1 56 -1 56 -17 0 -11 7 -18 18 -18 13 0 18 -7 18 -22 -1 -19 4 -22 25 -20
21 2 26 -1 25 -20 -1 -19 5 -24 32 -26 17 -2 32 -9 32 -15 1 -7 18 -31 39 -54
27 -31 47 -43 66 -43 21 0 29 -7 38 -30 15 -39 48 -48 93 -27 20 10 45 14 63
11 16 -4 31 -1 35 5 8 12 -41 60 -60 61 -7 0 -14 9 -17 20 -3 11 -13 20 -22
20 -12 0 -15 -5 -11 -16 5 -14 1 -15 -31 -10 -51 9 -94 27 -88 36 3 5 15 6 28
2 19 -5 20 -4 9 11 -8 9 -22 19 -33 22 -10 4 -19 12 -19 20 0 16 22 25 61 25
18 0 29 5 29 14 0 25 -28 39 -66 33 -42 -7 -96 2 -88 14 3 5 15 9 27 9 22 1
22 1 3 15 -11 8 -37 15 -57 15 -21 0 -41 5 -45 12 -5 7 -3 8 6 3 10 -6 11 -2
6 18 -6 26 -6 26 46 21 29 -3 74 -9 99 -14 62 -12 120 -2 126 21 5 18 7 17 37
-4 l31 -22 -49 -7 c-27 -4 -53 -11 -59 -17 -16 -16 0 -41 26 -41 14 0 30 -7
37 -15 7 -8 20 -15 30 -15 10 0 23 -7 30 -15 9 -11 16 -12 26 -4 14 12 34 4
34 -13 0 -20 44 -71 72 -83 57 -23 103 4 50 31 -14 7 -18 14 -12 24 10 16 3
33 -10 25 -5 -3 -21 0 -37 6 -28 11 -28 11 24 25 48 12 56 12 95 -6 54 -25 69
-25 98 0 26 22 36 25 45 10 11 -18 47 -11 52 10 6 22 16 25 42 10 14 -7 23 -4
37 11 25 28 7 41 -61 47 -72 6 -135 -19 -135 -55 0 -28 -5 -28 -35 -5 l-23 18
35 22 c37 25 36 46 -2 36 -28 -7 -65 11 -65 31 0 18 -12 19 -27 4 -9 -9 -23
-9 -57 0 -24 6 -52 8 -60 5 -9 -3 -16 -1 -16 6 0 6 5 8 10 5 6 -3 10 1 10 9 0
16 -29 36 -51 36 -7 0 -5 -6 6 -13 16 -12 12 -15 -40 -21 -32 -4 -61 -3 -64 2
-6 8 -14 10 -91 15 -25 2 -54 7 -64 12 -17 7 -19 5 -13 -23 6 -32 6 -32 -36
-32 -23 0 -76 12 -117 27 l-75 28 54 12 c30 6 66 20 80 30 21 15 35 18 75 12
65 -10 78 -1 32 23 -41 21 -56 46 -35 59 21 13 49 11 49 -4 0 -18 90 -67 122
-67 13 0 61 9 107 21 76 19 84 19 106 5 13 -9 33 -16 44 -16 11 0 25 -9 31
-19 18 -35 90 -39 90 -5 0 21 18 17 53 -12 22 -18 38 -24 56 -21 43 9 81 26
81 36 0 14 -54 41 -81 41 -13 0 -36 12 -51 27 -25 24 -37 28 -94 28 -45 1 -69
6 -80 17 -16 15 -14 16 26 11 37 -5 42 -4 38 13 -3 17 -15 19 -144 22 -116 2
-144 -1 -154 -13 -16 -19 -34 -19 -50 0 -17 21 -27 19 -34 -7 l-7 -23 -11 23
c-15 29 -70 30 -99 1 -21 -21 -40 -22 -46 -2 -2 6 4 13 14 16 10 3 -30 5 -88
6 -104 1 -106 0 -117 -24 -15 -33 -36 -33 -29 1 4 22 1 25 -22 22 -21 -2 -28
-11 -39 -48 -21 -73 -35 -94 -83 -120 -25 -14 -63 -40 -83 -57 -20 -18 -50
-40 -67 -48 l-30 -16 6 48 c13 86 36 103 146 103 45 0 49 2 49 24 0 31 -34 56
-77 56 -25 0 -31 4 -27 15 12 29 -16 45 -77 45 l-59 0 0 -285z m930 266 c0
-12 -26 -21 -58 -21 -26 1 -26 1 -8 15 22 16 66 20 66 6z m33 -51 c4 0 7 -7 7
-15 0 -9 -9 -15 -24 -15 -13 0 -40 -7 -59 -15 -20 -8 -54 -15 -76 -15 -35 0
-40 3 -50 31 -6 18 -11 34 -11 36 0 3 46 2 103 -1 56 -3 105 -5 110 -6z m-567
-35 c13 -33 17 -35 47 -30 33 7 95 -10 83 -22 -16 -16 -104 -32 -149 -26 -40
5 -54 2 -77 -16 -16 -11 -36 -21 -44 -21 -27 0 -25 16 5 35 17 11 41 41 55 68
31 59 58 63 80 12z m-226 -173 c0 -13 -67 -44 -86 -40 -15 3 -10 9 21 26 42
22 65 27 65 14z m867 -42 c22 -17 23 -21 9 -26 -19 -7 -46 12 -46 32 0 19 7
18 37 -6z m-833 -15 c15 -8 34 -15 42 -15 21 0 25 -17 8 -35 -15 -15 -19 -14
-44 10 -23 22 -31 25 -48 16 -28 -15 -42 -14 -42 4 0 14 26 34 45 35 6 0 23
-7 39 -15z m936 0 c0 -15 -43 -12 -48 3 -3 10 4 13 22 10 15 -2 26 -7 26 -13z
m-860 -99 c0 -3 -4 -8 -10 -11 -5 -3 -10 -1 -10 4 0 6 5 11 10 11 6 0 10 -2
10 -4z"/>
<path d="M4674 5105 c11 -8 32 -15 46 -15 14 0 35 7 46 15 17 13 13 14 -46 14
-59 0 -63 -1 -46 -14z"/>
<path d="M4910 5105 c-7 -8 -18 -15 -25 -15 -7 0 -25 -10 -40 -22 -26 -20 -26
-22 -10 -34 21 -15 9 -23 -35 -23 -14 0 -45 -3 -69 -7 -37 -5 -47 -3 -58 12
-14 18 -15 18 -37 -8 -12 -16 -31 -28 -42 -28 -27 0 -59 -24 -50 -38 9 -15 95
-30 145 -24 31 3 42 1 37 -7 -4 -6 -13 -11 -21 -11 -8 0 -17 -5 -21 -12 -7
-11 42 -7 77 7 11 4 18 0 22 -14 6 -25 35 -27 63 -6 25 19 34 19 34 0 0 -9 7
-18 15 -21 18 -7 75 17 75 32 0 7 7 14 15 18 8 3 15 15 15 26 0 13 7 20 18 20
10 0 23 5 30 12 9 9 12 7 12 -10 0 -13 -6 -22 -15 -22 -13 0 -14 -4 -4 -22 6
-13 21 -31 33 -40 l21 -17 -23 -16 c-12 -9 -29 -30 -38 -47 -13 -25 -20 -29
-42 -25 -20 4 -39 -4 -74 -30 -27 -19 -48 -39 -48 -44 0 -17 28 -21 52 -8 20
11 22 10 10 -3 -10 -13 -9 -17 5 -23 16 -6 14 -8 -9 -21 -16 -8 -28 -23 -28
-33 0 -31 -22 -42 -58 -29 -40 16 -54 2 -22 -22 19 -14 22 -22 14 -30 -9 -9
-17 -9 -34 0 -16 9 -25 9 -33 1 -20 -20 -37 -12 -37 19 0 24 -7 34 -37 50 -31
17 -33 20 -12 16 35 -7 41 1 25 33 -19 35 -81 68 -99 52 -11 -8 -21 -8 -42 3
-16 8 -32 13 -36 11 -4 -3 -9 4 -12 15 -4 15 -14 20 -44 21 -66 2 -89 -5 -63
-21 18 -11 16 -12 -43 -34 -57 -21 -56 -41 2 -41 23 0 45 -5 49 -11 4 -7 36
-15 71 -19 57 -7 63 -9 47 -21 -32 -23 -8 -34 75 -34 59 0 79 -3 79 -13 0 -8
9 -22 20 -32 24 -22 25 -43 4 -73 -18 -26 -50 -28 -76 -5 -17 15 -19 15 -38
-2 -11 -10 -20 -25 -20 -33 0 -10 -5 -12 -17 -7 -10 4 -29 10 -43 13 -14 3
-29 11 -33 18 -18 30 -67 8 -67 -29 0 -17 -5 -19 -37 -14 -20 4 -39 10 -42 15
-10 15 -48 32 -70 32 -25 0 -29 -31 -6 -50 8 -7 15 -20 15 -30 0 -35 33 -52
91 -44 50 7 53 6 40 -9 -7 -10 -21 -17 -30 -17 -24 0 -41 -20 -41 -47 0 -25
-10 -29 -27 -12 -19 19 -46 2 -39 -25 8 -32 1 -35 -41 -21 -35 12 -40 11 -72
-14 l-35 -26 -245 0 c-164 0 -216 -2 -156 -6 50 -4 142 -8 205 -9 80 -1 108
-4 93 -10 -31 -13 -29 -28 5 -36 15 -4 35 -14 45 -23 17 -14 21 -14 49 2 30
17 30 17 25 -4 -5 -20 -3 -21 29 -16 20 4 34 2 34 -5 0 -6 13 -8 36 -4 33 7
35 6 25 -12 -21 -40 23 -43 91 -7 46 24 47 24 53 5 8 -26 23 -25 67 5 40 27
58 31 75 14 15 -15 48 -7 48 11 0 10 8 14 22 12 25 -4 63 14 63 28 0 6 -13 18
-30 29 -16 10 -28 20 -25 22 6 7 116 -8 195 -27 84 -19 99 -35 111 -120 8 -60
5 -124 -7 -124 -2 0 -31 14 -64 32 -57 30 -61 30 -79 14 -11 -10 -40 -23 -66
-30 -25 -6 -46 -16 -46 -21 0 -6 18 -14 40 -19 41 -10 50 -23 30 -43 -7 -7 -1
-18 20 -36 48 -40 37 -61 -27 -46 -29 6 -33 4 -38 -17 -6 -22 -10 -24 -40 -18
-20 4 -34 2 -34 -4 0 -5 -20 -17 -44 -26 -25 -9 -49 -23 -55 -30 -9 -11 -1
-12 38 -8 28 2 66 1 85 -2 29 -6 35 -11 33 -29 -2 -19 2 -22 30 -20 25 2 31 0
27 -12 -5 -11 2 -15 26 -15 23 0 33 5 37 20 3 11 14 20 25 20 10 0 33 7 50 16
32 17 42 13 53 -23 5 -20 3 -23 -22 -23 -18 0 -33 -8 -41 -21 -14 -22 -51 -23
-96 -4 -16 7 -18 5 -14 -13 8 -29 -4 -28 -117 3 -49 14 -113 25 -141 25 -44 0
-58 -5 -98 -37 -26 -21 -49 -48 -52 -60 -5 -20 -13 -23 -54 -23 -27 0 -51 -4
-54 -9 -3 -5 -18 -12 -32 -15 -23 -6 -33 -1 -65 34 -22 23 -43 49 -48 58 -5 9
-13 14 -16 10 -19 -19 69 -102 315 -299 57 -46 111 -90 120 -97 12 -11 2 -12
-60 -7 -178 15 -312 34 -327 47 -14 11 -16 11 -8 -1 7 -11 2 -13 -25 -7 -19 3
-35 8 -37 10 -3 2 -7 55 -10 117 -4 77 -3 110 4 106 16 -10 23 31 7 44 -8 6
-11 15 -8 20 3 5 1 9 -5 9 -5 0 -17 21 -26 48 -8 26 -22 55 -30 65 -13 18 -14
17 -29 -12 -9 -16 -16 -34 -16 -38 0 -4 20 -30 45 -56 l45 -49 0 -98 c0 -53 3
-112 6 -129 l7 -31 -54 1 c-50 0 -210 25 -181 28 7 1 -4 27 -29 67 -34 53 -39
68 -28 75 8 4 17 5 20 1 3 -4 30 -38 59 -77 52 -70 69 -90 57 -69 -4 6 -11 58
-16 115 -7 78 -7 107 2 118 7 8 11 22 9 31 -1 10 19 49 46 88 l49 72 24 -45
c13 -24 25 -42 27 -40 2 1 -6 22 -18 45 -24 48 -22 55 15 46 24 -6 33 -20 50
-70 4 -15 8 -17 18 -7 9 10 7 22 -13 59 l-26 47 21 21 c11 12 64 35 118 51
l97 31 0 -29 c0 -18 -5 -29 -13 -29 -14 0 -87 -98 -87 -117 0 -6 -11 -18 -25
-27 -14 -9 -25 -24 -25 -33 0 -14 3 -13 20 5 12 12 25 22 30 22 6 0 10 9 10
21 0 25 79 121 95 115 8 -3 11 10 11 37 -1 36 3 44 33 64 19 13 29 23 22 23
-18 0 -13 45 10 74 31 40 75 58 145 59 41 1 57 5 47 11 -22 12 -115 1 -152
-19 -38 -19 -71 -69 -71 -107 0 -34 -13 -42 -162 -94 l-118 -40 -1 30 c-1 17
-5 42 -9 56 -7 21 -8 18 -9 -20 -2 -61 -10 -70 -72 -86 l-54 -14 58 6 c47 5
57 3 57 -10 0 -11 -9 -16 -31 -16 -17 0 -43 -8 -57 -19 -57 -40 -150 -81 -155
-68 -4 8 -6 7 -6 -3 -1 -20 -77 -50 -128 -50 -46 0 -41 -6 -138 134 -60 87
-85 133 -64 120 8 -4 9 1 4 15 -6 21 -4 22 52 19 l58 -3 6 -115 c7 -130 5
-120 20 -120 6 0 9 6 6 14 -4 10 28 27 121 62 69 26 139 48 154 48 15 1 28 4
28 9 0 16 -51 4 -175 -42 l-130 -47 -8 25 c-8 26 -1 168 9 196 4 9 0 15 -9 15
-8 0 -17 7 -21 15 -4 11 -21 15 -63 15 -65 0 -107 -21 -99 -48 4 -13 -33 -42
-149 -119 l-154 -102 -153 14 c-275 27 -452 45 -485 50 l-32 6 2 77 c2 66 6
81 27 106 49 58 74 76 123 91 68 20 107 19 169 -5 l52 -20 56 56 c69 69 144
107 225 112 56 4 61 6 75 36 29 61 144 67 220 11 l32 -23 35 24 c19 13 49 26
67 29 72 11 78 14 23 10 -35 -2 -70 -12 -91 -24 -33 -21 -34 -21 -56 -3 l-23
19 36 39 c19 22 52 46 74 53 21 8 55 29 77 47 43 37 120 59 179 52 26 -3 33
-1 27 8 -15 17 39 85 96 122 91 58 204 75 319 48 33 -8 61 -13 63 -11 10 9
-76 28 -153 32 -74 4 -100 2 -147 -15 -78 -27 -141 -73 -174 -127 -27 -42 -32
-45 -74 -45 -50 0 -140 -37 -161 -67 -8 -10 -35 -27 -61 -37 -30 -11 -60 -33
-81 -57 -30 -37 -35 -39 -61 -30 -37 15 -104 13 -141 -3 -19 -8 -55 -11 -95
-8 -96 6 -166 -23 -249 -105 -65 -63 -65 -63 -101 -51 -81 27 -199 8 -273 -44
-16 -11 -30 -19 -31 -17 -49 58 -168 277 -170 313 -1 13 -10 22 -26 26 -14 3
-25 12 -25 20 0 21 23 23 28 3 3 -10 4 9 4 42 0 33 -2 45 -4 28 -2 -18 -8 -33
-14 -33 -11 0 -11 149 0 206 9 47 3 104 -10 104 -5 0 -9 -9 -9 -19 0 -11 -5
-23 -10 -26 -8 -5 -8 -11 0 -20 8 -9 7 -45 -1 -126 -7 -63 -11 -129 -10 -146
0 -19 -4 -33 -10 -33 -7 0 -9 -9 -6 -21 4 -13 -13 -69 -41 -142 -41 -107 -47
-117 -55 -93 -10 31 -27 25 -27 -11 0 -19 -30 -56 -117 -147 -64 -66 -122
-122 -130 -124 -8 -2 -13 7 -13 26 0 25 -5 30 -31 36 -17 3 -42 6 -55 6 -21 0
-23 -4 -18 -25 5 -21 3 -25 -15 -25 -20 0 -21 5 -21 79 0 49 6 93 16 116 11
27 12 41 5 48 -14 14 -14 130 0 144 8 8 4 15 -17 26 -58 30 -67 50 -74 155 -5
79 -7 90 -12 57 -4 -22 -8 -67 -10 -100 -2 -57 -4 -62 -52 -112 -39 -41 -48
-55 -38 -65 14 -14 16 -124 3 -132 -5 -4 -3 -26 5 -53 8 -26 14 -89 14 -145 0
-90 -2 -99 -17 -94 -10 2 -112 14 -228 26 -115 12 -216 23 -223 25 -7 3 -17
17 -24 32 l-11 28 -8 -30 c-4 -16 -15 -75 -24 -130 -8 -54 -17 -101 -19 -103
-3 -2 -46 10 -98 26 -158 51 -240 71 -343 87 -103 15 -282 18 -370 6 -29 -4
27 -6 135 -6 201 0 273 -10 470 -66 152 -43 200 -61 200 -75 0 -13 -27 -139
-34 -160 -3 -7 -39 -3 -113 12 -59 13 -124 24 -143 24 -23 0 -42 8 -57 24 -33
34 -90 46 -250 53 -135 5 -143 7 -158 29 -28 42 -59 65 -81 60 -17 -5 -24 1
-34 24 -16 38 -34 51 -20 15 15 -40 13 -45 -20 -45 -17 0 -30 -4 -30 -8 0 -4
31 -6 70 -5 l69 3 23 -39 c18 -31 30 -41 63 -48 34 -7 40 -12 40 -33 0 -22 -6
-26 -50 -36 -27 -6 -60 -7 -71 -3 -12 4 -31 5 -43 2 -21 -5 -29 11 -11 22 22
14 9 26 -20 20 -26 -6 -31 -3 -39 18 -23 59 -31 38 -31 -76 l0 -114 41 -13
c47 -16 55 -25 39 -45 -6 -8 -9 -19 -5 -25 10 -16 -11 -12 -25 6 -8 8 -22 20
-32 25 -16 8 -18 6 -18 -21 0 -17 4 -29 9 -25 17 10 101 -18 98 -33 -2 -14 61
-42 96 -42 19 0 23 15 7 25 -5 3 -10 10 -10 16 0 18 27 9 65 -21 48 -38 77
-46 115 -30 24 10 28 16 20 30 -13 24 -4 30 30 20 32 -9 40 -5 40 22 0 18 -37
40 -52 32 -4 -3 -12 5 -18 16 -6 11 -19 20 -28 20 -10 0 -23 5 -28 10 -7 7
-18 2 -34 -15 -28 -30 -44 -32 -37 -5 5 18 0 20 -36 20 -67 0 -130 44 -75 52
18 2 23 9 23 33 0 22 5 31 20 33 11 2 30 14 42 27 12 13 28 25 35 27 10 4 11
11 1 38 l-12 33 92 -6 c127 -8 196 -25 224 -53 15 -15 36 -24 56 -24 18 -1 82
-11 142 -23 95 -20 110 -26 110 -42 0 -26 -20 -25 -233 3 -90 12 -193 21 -230
20 -41 -1 -51 -3 -27 -5 109 -9 252 -25 361 -40 l121 -16 -9 -41 c-16 -80 -19
-86 -29 -86 -6 0 -27 14 -46 30 -35 32 -61 37 -94 20 -15 -9 -21 -7 -25 5 -10
25 -59 45 -106 44 l-43 -2 46 -6 c48 -7 96 -32 105 -56 5 -11 11 -10 34 3 28
16 30 16 57 -6 15 -12 38 -27 50 -34 22 -11 21 -13 -49 -115 -39 -58 -82 -112
-95 -121 -25 -16 -25 -16 39 -32 l63 -16 0 -69 0 -69 -73 -36 c-77 -37 -83
-50 -22 -50 58 0 71 -16 63 -78 -5 -46 -9 -53 -24 -49 -28 7 -23 -2 6 -13 31
-12 33 -33 3 -26 l-23 6 23 -11 c16 -9 22 -21 22 -44 0 -26 -5 -33 -35 -44
-42 -15 -59 -42 -50 -81 7 -34 -18 -80 -45 -80 -10 0 -24 -9 -31 -21 -10 -15
-23 -20 -44 -17 -27 3 -28 4 -12 20 22 22 21 35 -3 48 -14 8 -26 8 -41 0 -11
-7 -23 -9 -26 -6 -9 9 8 26 26 26 20 0 83 55 73 64 -13 14 -46 4 -64 -20 -15
-18 -24 -22 -31 -15 -8 8 -4 18 12 35 14 15 21 31 17 41 -5 15 -18 15 -78 -2
-30 -8 -20 11 27 50 25 21 45 42 45 47 0 12 -30 2 -52 -18 -16 -13 -18 -12
-28 12 -13 36 -15 34 25 50 39 16 47 36 15 36 -17 0 -19 3 -10 19 14 27 13 34
-6 27 -9 -4 -23 -1 -31 5 -11 10 -11 15 4 31 11 13 14 22 6 26 -5 4 -13 17
-17 30 -10 31 -19 28 -32 -13 -7 -23 -8 -35 -1 -35 6 0 0 -11 -13 -25 -13 -14
-29 -25 -37 -25 -18 0 -16 -17 3 -28 10 -6 14 -14 9 -22 -4 -7 -9 -29 -11 -48
-4 -46 -10 -49 -37 -23 -15 13 -30 19 -40 15 -23 -8 -21 2 4 34 l21 27 -51 5
c-43 5 -57 12 -94 48 -23 23 -51 42 -60 42 -10 0 -22 11 -28 24 -7 14 -17 22
-25 19 -10 -4 -5 -15 17 -43 18 -22 37 -36 45 -33 23 9 64 -42 64 -81 0 -19
-6 -36 -12 -39 -10 -3 -10 -9 -2 -24 14 -23 1 -53 -22 -53 -10 0 -13 -7 -8
-24 5 -21 0 -28 -36 -46 -46 -23 -58 -43 -40 -64 9 -12 8 -20 -6 -41 -16 -25
-16 -27 5 -49 29 -31 28 -66 -1 -66 -22 -1 -22 -2 6 -24 25 -21 28 -28 22 -60
-8 -42 2 -45 34 -11 17 18 27 22 40 15 10 -5 20 -6 24 -3 3 4 25 -12 47 -36
33 -34 40 -48 36 -69 -6 -31 21 -72 48 -72 16 0 105 -83 105 -98 0 -5 -6 -16
-14 -27 -10 -14 -21 -17 -49 -12 -25 4 -39 1 -48 -9 -6 -8 -17 -14 -25 -14
-16 0 -37 36 -29 49 14 23 -6 36 -50 33 -36 -3 -45 -1 -45 12 0 23 47 43 62
28 9 -9 14 -6 23 11 9 18 8 24 -6 34 -13 10 -23 9 -48 -3 -18 -9 -49 -18 -70
-21 -30 -4 -37 -9 -37 -27 1 -16 -5 -21 -21 -20 -20 0 -23 -4 -23 -38 0 -28 5
-40 18 -44 9 -3 24 -9 32 -13 9 -5 24 -2 37 7 20 13 26 12 48 -2 13 -9 31 -16
39 -16 9 0 23 -11 32 -25 9 -14 21 -25 27 -25 6 0 18 -7 28 -16 14 -13 17 -26
12 -59 -5 -37 -2 -45 16 -55 26 -13 25 -47 -1 -63 -12 -8 -27 -3 -64 21 -27
17 -50 30 -51 28 -9 -9 12 -33 40 -46 22 -10 32 -22 31 -36 0 -15 5 -20 17
-17 27 7 59 -15 59 -41 0 -40 -29 -86 -55 -86 -12 0 -28 -7 -36 -16 -8 -10
-21 -13 -37 -9 -16 4 -31 0 -42 -10 -22 -20 -67 -11 -75 16 -4 11 -15 27 -25
37 -10 9 -19 26 -21 36 -2 11 -10 21 -16 24 -20 6 -17 -102 2 -118 19 -16 19
-36 0 -44 -9 -3 -15 -18 -15 -36 l0 -31 552 4 c304 2 564 0 578 -4 14 -4 -58
-8 -160 -9 -451 -6 -418 -15 85 -24 448 -7 744 -19 607 -24 -23 -1 -199 -20
-390 -42 -191 -22 -372 -43 -402 -46 -32 -4 -101 1 -164 10 -93 14 -112 14
-123 3 -11 -11 -23 -11 -56 -3 -23 6 -47 15 -54 19 -18 11 -146 24 -320 33
l-153 7 0 -41 0 -40 92 -6 c121 -9 412 -37 416 -41 11 -10 -152 -13 -198 -4
-30 7 -112 14 -182 16 l-128 4 0 -36 0 -36 58 5 c31 3 109 8 172 11 63 3 192
17 285 30 299 42 545 74 730 95 968 107 1330 126 2345 122 102 0 388 6 635 13
l450 14 -410 -5 c-225 -2 -511 -7 -635 -10 -179 -5 -223 -4 -213 6 13 14 113
19 886 45 268 10 494 14 503 11 8 -3 14 -14 12 -23 -2 -14 -14 -18 -50 -19
-35 -1 -55 -8 -79 -29 -26 -21 -40 -26 -65 -22 -25 4 -37 0 -55 -19 -16 -17
-32 -24 -51 -22 -19 2 -36 -6 -57 -26 -31 -30 -76 -40 -98 -23 -9 6 -18 6 -26
-1 -7 -6 -18 -7 -27 -2 -7 5 -24 4 -38 -1 -17 -7 -28 -6 -32 1 -5 8 -19 5 -44
-9 -23 -13 -46 -19 -60 -15 -13 3 -27 1 -31 -5 -4 -7 -12 -8 -24 -2 -10 6 -33
6 -53 2 -24 -6 -40 -5 -48 3 -14 14 -71 17 -87 5 -7 -7 -13 -6 -17 0 -4 5 -33
9 -66 7 -33 -1 -60 1 -60 6 0 15 -38 8 -44 -8 -4 -11 -13 -14 -30 -10 -14 3
-28 1 -31 -4 -4 -6 -10 -8 -15 -5 -5 3 -11 1 -15 -5 -4 -7 -14 -5 -28 5 -29
20 -44 19 -52 -4 -7 -24 -40 -33 -71 -19 -17 8 -27 8 -37 0 -10 -8 -21 -6 -45
8 -40 25 -51 25 -68 3 -9 -14 -27 -18 -76 -18 -35 0 -68 -3 -74 -7 -13 -9
-145 -4 -161 5 -6 4 -18 1 -25 -6 -17 -17 -52 -6 -62 18 -6 15 -9 14 -31 -9
-29 -31 -51 -33 -60 -6 -6 18 -8 19 -34 5 -16 -8 -31 -21 -34 -30 -9 -22 -24
-19 -30 6 -5 20 -10 21 -59 15 -29 -4 -61 -14 -70 -23 -17 -15 -20 -15 -37 1
-18 17 -22 17 -67 -3 -48 -22 -53 -21 -68 14 -3 6 -14 0 -24 -13 -24 -26 -61
-28 -103 -6 -23 12 -34 13 -44 4 -8 -7 -18 -9 -24 -6 -5 3 -31 -3 -57 -14 -37
-16 -49 -18 -56 -8 -4 7 -8 16 -8 21 0 4 -13 1 -30 -8 -39 -20 -47 -19 -54 10
-8 31 -28 32 -73 4 -31 -20 -35 -20 -52 -5 -20 18 -72 21 -88 5 -8 -8 -17 -7
-34 5 -31 21 -45 20 -71 -6 -24 -24 -85 -58 -104 -58 -7 0 -44 14 -83 30 -40
17 -83 35 -98 41 -14 5 -24 12 -21 14 2 2 60 13 128 24 278 44 1068 110 1370
114 131 2 329 -17 316 -30 -5 -6 -289 -34 -585 -58 -101 -8 -187 -17 -190 -21
-8 -8 310 14 529 36 52 6 230 15 395 21 165 6 372 15 460 19 120 6 100 6 -80
2 -376 -10 -401 -9 -510 16 -136 31 -279 37 -540 23 -660 -35 -1335 -111
-1335 -150 0 -4 48 -27 107 -52 l106 -44 -89 -7 c-276 -22 -294 -26 -99 -21
l190 5 235 -112 c129 -61 239 -115 243 -119 5 -5 -20 -14 -55 -20 -102 -20
-333 -79 -436 -113 -125 -40 -374 -141 -535 -217 -151 -71 -312 -173 -284
-179 10 -2 26 3 35 11 9 8 58 40 108 70 l92 55 195 4 c174 3 221 8 206 22 -3
3 -56 10 -119 17 -141 14 -156 21 -98 41 29 11 113 20 267 28 122 6 229 14
237 17 8 3 14 1 14 -4 0 -6 -19 -16 -42 -23 -54 -16 -279 -112 -305 -131 -18
-12 23 -14 306 -11 179 2 342 2 361 0 l35 -3 -63 -43 c-35 -24 -61 -46 -59
-49 3 -2 34 5 70 16 55 17 97 20 272 22 l206 2 81 54 c122 82 334 183 383 183
36 0 8 -23 -82 -69 -114 -58 -115 -66 -3 -17 94 42 202 75 372 116 120 28 167
36 157 25 -3 -2 -50 -16 -105 -30 -95 -25 -407 -126 -402 -131 2 -1 55 2 118
6 129 10 167 6 149 -16 -6 -8 -17 -14 -24 -14 -23 0 -230 -108 -250 -130 l-18
-20 614 2 c338 1 592 4 564 7 -41 5 -46 8 -27 14 12 5 34 24 48 43 24 30 32
35 68 33 67 -3 92 13 127 83 18 35 43 78 58 97 23 30 23 33 6 28 -264 -76
-506 -161 -607 -214 -5 -2 -8 -1 -8 2 0 13 209 104 330 143 146 48 290 85 298
78 3 -3 10 -1 17 4 13 11 125 61 125 56 0 -1 -22 -17 -49 -33 -48 -30 -102
-96 -116 -143 l-7 -25 26 24 c14 14 26 19 26 13 0 -6 -16 -24 -35 -39 -19 -15
-35 -32 -35 -37 0 -6 -10 -20 -22 -33 -38 -40 -15 -33 41 13 53 44 78 53 97
34 6 -6 23 -6 47 2 36 11 48 30 27 43 -15 10 -12 45 5 51 9 4 25 -4 39 -19 22
-24 63 -43 72 -35 2 3 -1 19 -7 37 -14 41 1 62 40 55 27 -6 27 -5 27 49 -1 70
22 101 70 93 23 -5 35 -1 49 14 19 21 69 27 80 10 13 -20 35 -10 35 16 0 17
12 37 35 58 19 18 35 37 35 42 0 21 23 33 43 23 15 -9 24 -6 48 16 23 23 34
27 63 22 l36 -6 0 137 c-1 105 -3 133 -12 118 -6 -11 -12 -43 -13 -71 -1 -43
-8 -60 -34 -94 -18 -23 -40 -45 -49 -50 -10 -5 -77 -12 -149 -16 -119 -7 -133
-6 -133 9 0 20 -3 20 -48 -2 -28 -15 -80 -22 -217 -31 -99 -7 -236 -18 -305
-25 l-125 -13 -80 30 -80 29 -165 -6 c-91 -4 -185 -10 -210 -15 l-45 -8 35 -6
c19 -3 73 -9 120 -12 161 -12 355 -32 313 -34 -156 -4 -881 -130 -990 -172
-22 -8 -23 -11 -12 -26 12 -15 12 -16 -6 -9 -11 5 -30 8 -42 8 -17 -1 -260
-79 -488 -156 -11 -4 -7 0 9 10 17 9 156 58 310 109 197 64 275 94 265 101
-17 11 -578 19 -669 9 -57 -6 -62 -9 -46 -21 10 -7 24 -15 30 -17 25 -9 -8
-16 -179 -36 -99 -12 -209 -29 -245 -37 -65 -15 -501 -33 -489 -20 3 3 66 29
140 57 l134 51 100 -7 c55 -4 109 -7 120 -6 53 2 288 49 275 55 -8 3 -40 14
-70 24 l-55 19 45 15 45 16 -120 57 c-66 32 -169 81 -230 110 -92 44 -106 54
-85 58 14 3 351 24 750 47 399 23 793 46 875 51 516 30 1091 57 1628 75 195 6
197 7 197 29 0 23 -28 55 -48 55 -6 0 -15 -7 -20 -16 -12 -22 -212 -30 -212
-8 0 16 -16 19 -25 4 -11 -18 -32 -11 -43 15 -10 22 -15 24 -33 15 -26 -15
-34 -7 -19 19 12 23 57 28 90 11 15 -8 20 -6 25 9 11 36 44 36 80 1 32 -31 36
-32 64 -21 16 7 32 20 35 28 4 11 14 13 36 8 45 -10 70 2 70 33 0 24 -1 25
-13 8 -12 -17 -14 -17 -20 -2 -7 18 -42 17 -92 -3 -26 -11 -31 -10 -46 11 -14
18 -28 23 -65 24 -54 1 -69 18 -30 35 14 7 26 21 28 33 2 17 9 21 36 20 26 -2
33 2 36 20 3 11 17 152 32 311 17 194 31 295 40 305 9 11 17 75 25 197 7 108
16 180 22 176 9 -6 3 -162 -14 -353 -10 -115 -39 -566 -39 -618 0 -25 5 -35
24 -42 13 -5 26 -15 29 -22 3 -10 9 -10 23 -2 18 11 19 35 22 573 1 372 -1
561 -8 561 -13 0 -13 137 0 145 6 4 10 99 10 251 l0 245 -22 -15 c-12 -9 -25
-16 -29 -16 -4 0 -10 30 -13 68 -4 37 -9 79 -12 95 -4 21 -2 27 12 27 10 0 28
-12 41 -27 l22 -28 1 131 c0 125 -1 132 -22 147 l-23 16 23 0 c21 1 22 5 22
82 0 75 -2 82 -30 112 -35 37 -44 101 -12 90 9 -3 23 -10 30 -16 9 -7 12 20
12 132 0 119 -2 141 -15 141 -19 0 -19 33 0 96 17 57 19 104 5 104 -6 0 -24
-7 -40 -15 -31 -16 -40 -51 -20 -71 14 -14 -18 -156 -34 -151 -6 2 -15 34 -20
71 -9 63 -7 72 16 119 15 29 33 69 42 90 16 38 17 39 41 23 l25 -16 0 132 -1
133 -32 -52 c-20 -33 -39 -52 -51 -53 -11 0 -28 -7 -37 -16 -17 -15 -21 -15
-46 1 l-28 19 28 7 c16 4 35 5 43 2 15 -6 44 13 44 29 0 6 -31 9 -77 7 -50 -3
-78 0 -80 7 -5 15 95 38 181 43 20 1 23 5 18 23 -4 18 -2 20 16 16 22 -6 22
-6 22 187 l0 194 -26 26 c-29 29 -28 45 4 60 20 9 22 17 22 97 l0 88 -29 0
c-20 0 -34 -8 -45 -25 -9 -14 -23 -25 -31 -25 -18 0 -20 36 -2 43 6 3 -11 6
-39 6 -34 1 -56 -4 -64 -14z m106 -857 c8 -13 -43 -61 -57 -53 -5 4 -9 17 -9
30 0 17 7 25 23 28 12 2 25 5 29 6 4 0 10 -4 14 -11z m-96 -13 c0 -8 -4 -15
-9 -15 -5 0 -11 7 -15 15 -3 9 0 15 9 15 8 0 15 -7 15 -15z m-28 -27 c24 -26
68 -105 68 -123 0 -1 -27 8 -60 22 -33 13 -99 28 -147 34 -94 10 -103 13 -103
35 0 20 17 18 47 -6 14 -11 33 -20 41 -20 26 0 52 31 52 62 0 26 3 28 36 28
28 0 43 -7 66 -32z m156 9 c13 -15 -1 -42 -17 -33 -13 8 -15 46 -2 46 5 0 13
-6 19 -13z m-2805 -12 c12 0 25 -17 41 -55 20 -49 75 -147 131 -235 19 -29 19
-30 1 -15 -11 8 -32 33 -48 54 -35 49 -37 34 -2 -18 l27 -39 -24 7 c-13 4 -66
10 -117 13 -81 5 -92 8 -87 23 11 35 45 226 45 255 0 16 4 26 8 20 4 -5 15
-10 25 -10z m2767 -44 c0 -66 -24 -81 -39 -24 -8 28 -7 39 2 45 24 15 37 8 37
-21z m-3387 -52 l37 -10 0 -59 c0 -56 -2 -60 -22 -60 -62 1 -68 8 -68 76 0 35
3 64 8 64 4 0 24 -5 45 -11z m1533 -11 c2 -2 1 -14 -3 -26 -5 -19 -12 -22 -54
-22 -68 0 -150 -34 -208 -86 -32 -29 -55 -42 -65 -38 -23 9 -20 25 12 59 75
83 173 128 261 121 29 -3 55 -6 57 -8z m-1625 -54 c-26 -34 -27 -48 -1 -34 14
7 20 7 20 0 0 -5 -6 -10 -12 -10 -10 0 -10 -2 -2 -8 8 -5 4 -13 -12 -25 l-24
-18 0 44 c0 35 5 48 23 60 31 22 31 21 8 -9z m112 -81 c-7 -2 -19 -2 -25 0 -7
3 -2 5 12 5 14 0 19 -2 13 -5z m1145 -28 c44 -19 47 -22 34 -43 -7 -10 -19 -8
-57 9 -65 29 -152 23 -224 -16 -41 -23 -53 -26 -66 -15 -21 17 -11 28 59 62
55 26 68 29 136 25 41 -3 94 -13 118 -22z m-1126 -15 c-2 -14 -5 -25 -5 -26
-1 0 -21 1 -44 4 -38 4 -43 7 -43 29 0 23 3 24 48 21 44 -3 47 -5 44 -28z
m516 -107 c44 -60 141 -184 215 -278 75 -93 131 -172 125 -174 -13 -4 -41 25
-185 195 -56 67 -131 167 -168 223 l-66 101 -47 -60 c-26 -32 -117 -134 -202
-226 -85 -92 -145 -162 -133 -156 16 9 150 148 288 300 13 14 50 -25 165 -173
59 -76 179 -216 199 -233 18 -15 1 -14 -339 19 -192 19 -270 32 -270 47 0 3
10 16 22 29 17 19 19 23 5 23 -8 0 -24 -11 -35 -25 -14 -17 -30 -25 -51 -25
-17 0 -31 4 -31 8 0 10 123 157 245 292 48 52 107 123 131 158 25 34 47 62 49
62 1 0 39 -48 83 -107z m216 56 c39 -13 71 -29 73 -35 2 -7 -20 -3 -54 9 -34
12 -98 22 -157 26 -72 4 -101 10 -104 20 -8 23 158 9 242 -20z m-756 11 c9 0
12 -49 12 -209 l0 -210 -37 -38 -38 -38 -3 240 c-1 132 0 246 3 253 3 9 13 12
28 8 12 -3 28 -6 35 -6z m-78 -276 l0 -241 -25 -23 c-14 -13 -26 -22 -27 -19
-2 2 -2 58 0 124 2 68 7 113 12 106 12 -20 30 -3 30 29 0 31 -26 49 -33 22 -3
-9 -5 42 -6 115 -1 116 1 133 16 142 12 6 20 6 25 -2 4 -7 8 -120 8 -253z
m819 230 c29 -8 51 -17 48 -20 -3 -3 -23 0 -46 6 -23 6 -76 13 -118 15 -46 3
-79 9 -82 16 -5 15 122 4 198 -17z m2534 9 c-7 -2 -19 -2 -25 0 -7 3 -2 5 12
5 14 0 19 -2 13 -5z m-2515 -42 c26 -7 27 -9 30 -99 2 -83 1 -92 -15 -92 -32
0 -38 14 -38 85 0 64 -2 70 -21 73 -38 5 -47 -79 -13 -122 11 -14 17 -26 12
-26 -19 0 -53 68 -53 106 0 42 -7 57 -21 49 -4 -3 -3 -20 2 -37 5 -17 7 -33 6
-35 -2 -1 -21 20 -42 48 -31 41 -36 52 -24 60 14 10 128 3 177 -10z m-310 -47
c-2 -1 -15 0 -31 3 -22 4 -25 8 -16 19 10 12 15 12 30 -2 11 -10 18 -18 17
-20z m1491 20 c2 -2 2 -6 -1 -9 -9 -9 -118 7 -118 17 0 9 109 1 119 -8z m-12
-274 c39 -58 104 -145 143 -194 78 -97 87 -128 15 -50 -42 46 -238 319 -280
392 -11 17 -22 32 -25 32 -3 0 -54 -82 -115 -181 -60 -99 -120 -189 -132 -201
-13 -12 -23 -29 -23 -37 0 -12 2 -13 8 -4 6 10 54 9 222 -3 118 -9 219 -20
225 -25 6 -6 3 -22 -9 -44 -16 -29 -17 -38 -6 -65 10 -25 18 -30 46 -30 l34 0
0 -449 0 -450 -162 4 c-90 2 -174 6 -188 8 -14 3 -40 6 -57 6 -26 1 -33 5 -33
21 0 19 7 20 134 20 170 0 199 -5 190 -34 -4 -11 -3 -17 2 -13 11 10 5 423 -6
453 -14 37 -106 56 -155 33 -14 -6 -4 -8 35 -4 42 4 51 3 40 -6 -12 -8 -8 -9
18 -5 20 4 31 2 27 -4 -3 -6 -2 -10 4 -10 12 0 35 -39 28 -47 -3 -2 -19 3 -36
11 -34 18 -54 21 -31 5 11 -8 -2 -9 -49 -5 -35 3 -88 6 -118 6 -40 0 -52 3
-47 13 6 10 4 10 -7 0 -21 -20 -29 -15 -29 16 0 29 1 30 68 36 104 10 105 13
5 13 -90 0 -91 0 -96 -27 -3 -14 -1 -27 4 -29 5 -2 9 -99 9 -223 0 -208 -1
-219 -19 -219 -17 0 -19 12 -26 165 -4 91 -5 193 -2 227 3 35 7 120 9 191 3
121 2 127 -17 128 l-20 0 20 9 c16 7 10 9 -25 11 -25 1 -55 1 -67 0 -37 -3
-30 35 7 43 l30 6 0 79 0 79 43 37 c36 31 38 35 14 26 -16 -6 -39 -11 -52 -11
-14 0 -34 -13 -49 -31 -26 -30 -28 -31 -74 -21 l-47 10 47 1 c41 1 50 5 74 36
23 31 32 35 70 35 24 0 44 4 44 9 0 5 -9 7 -20 4 -20 -5 -25 4 -21 36 5 35
190 328 248 392 l35 39 37 -53 c20 -29 68 -100 108 -157z m-1752 178 c2 -2
-25 -36 -58 -76 -46 -54 -63 -68 -65 -55 -2 10 -8 22 -13 27 -5 6 -5 -3 0 -20
6 -21 4 -38 -4 -55 -12 -21 -13 -10 -13 86 l0 111 75 -7 c41 -4 76 -9 78 -11z
m385 1 c0 -6 -4 -7 -10 -4 -5 3 -10 11 -10 16 0 6 5 7 10 4 6 -3 10 -11 10
-16z m-1055 -24 c39 -3 84 -7 100 -8 17 -2 51 -4 76 -5 36 -2 48 -7 58 -24 11
-22 11 -22 6 -1 -5 18 -2 21 17 16 27 -7 48 -30 48 -54 0 -21 -31 -34 -42 -17
-7 10 -8 10 -7 -2 4 -37 -1 -40 -58 -39 -32 0 -83 4 -113 8 -30 5 -56 8 -58 6
-1 -1 16 -40 37 -87 l39 -85 -19 -58 c-10 -31 -17 -61 -14 -65 2 -4 48 -10
102 -14 134 -10 197 -26 90 -23 -42 1 -77 -1 -77 -5 0 -5 7 -8 16 -8 14 0 57
-80 57 -107 0 -7 5 -13 10 -13 6 0 8 -3 5 -6 -4 -3 2 -14 13 -25 11 -11 17
-24 14 -29 -3 -5 4 -14 16 -20 11 -7 19 -14 16 -16 -3 -3 5 -15 17 -28 11 -13
34 -37 50 -55 l29 -32 -39 7 c-21 4 -40 11 -42 15 -2 5 -16 9 -31 9 -43 0
-101 67 -165 190 -55 106 -56 109 -34 113 18 3 16 5 -8 6 -17 0 -38 9 -47 19
-18 20 -118 256 -120 284 -1 9 -4 15 -8 12 -9 -5 -79 104 -79 124 0 23 14 6
49 -58 37 -67 39 -60 6 22 -14 34 -25 63 -25 65 0 2 10 1 23 -2 12 -3 54 -7
92 -10z m353 -40 c2 -1 2 -25 0 -52 l-3 -49 -27 59 -28 59 28 -7 c15 -4 28 -8
30 -10z m3512 -40 c0 -39 -22 -48 -40 -16 -13 24 -13 44 -1 36 5 -3 12 -1 16
5 13 21 25 9 25 -25z m-2569 -37 c23 -35 63 -89 87 -121 25 -31 43 -60 40 -63
-3 -2 -45 46 -93 108 -48 62 -92 119 -98 126 -7 8 -5 12 6 12 9 0 35 -28 58
-62z m99 47 c47 -3 86 -9 88 -14 1 -4 17 -5 34 -3 24 4 35 -1 50 -19 17 -21
18 -21 9 -3 -10 21 -9 21 37 16 26 -2 49 -6 51 -9 3 -2 -7 -15 -21 -30 -24
-23 -29 -25 -44 -12 -16 13 -16 12 -4 -8 13 -19 10 -25 -22 -61 -20 -22 -44
-52 -54 -67 l-18 -27 -28 56 c-16 31 -31 56 -33 56 -3 0 9 -28 26 -61 44 -88
25 -97 -40 -19 -51 62 -151 204 -151 215 0 4 8 4 18 1 9 -3 55 -8 102 -11z
m-1555 -87 c-9 -45 -20 -86 -24 -91 -4 -4 2 35 12 88 11 52 22 93 25 91 2 -2
-4 -42 -13 -88z m1326 55 c13 -16 12 -17 -3 -4 -10 7 -18 15 -18 17 0 8 8 3
21 -13z m627 -21 c10 -9 14 -13 10 -8 -15 19 -8 21 47 18 30 -2 55 -7 55 -12
0 -4 11 -5 25 -2 20 3 25 0 25 -15 0 -29 -11 -35 -27 -15 -11 13 -11 10 1 -14
15 -31 13 -74 -5 -121 -6 -18 -16 -23 -41 -23 -65 0 -76 9 -133 106 -30 51
-55 95 -55 98 0 15 83 5 98 -12z m478 -44 c28 -29 81 -92 117 -140 l67 -88
-38 0 c-20 0 -114 5 -207 12 l-171 12 46 70 c26 39 62 97 81 129 18 31 38 57
44 57 6 0 33 -24 61 -52z m-550 -25 c54 -85 114 -205 114 -230 0 -12 5 -25 10
-28 13 -8 13 3 -4 58 -15 49 -15 49 25 25 3 -1 14 4 24 12 16 14 17 12 10 -20
-14 -66 -34 -98 -66 -102 -28 -4 -41 6 -17 14 8 3 4 13 -11 29 -12 13 -50 68
-84 122 -34 53 -65 97 -68 97 -3 0 -34 -40 -68 -90 -34 -49 -57 -90 -51 -90 5
0 10 -7 10 -16 0 -8 5 -12 10 -9 8 5 7 11 0 20 -9 11 -4 23 21 54 l32 40 28
-38 c15 -22 33 -42 39 -46 8 -5 5 -11 -7 -21 -16 -13 -16 -14 0 -8 10 4 17 1
17 -6 0 -6 5 -8 10 -5 6 3 10 2 10 -2 0 -5 15 -15 33 -22 29 -13 30 -14 10
-18 -35 -7 -30 -40 7 -48 l30 -7 0 -99 c0 -98 0 -99 -24 -99 -23 0 -25 4 -29
53 l-3 52 -2 -57 -2 -58 38 0 37 0 -3 105 -3 105 41 0 42 0 -31 -35 c-38 -44
-39 -51 -2 -58 25 -5 29 -11 32 -44 5 -53 1 -71 -19 -77 -9 -3 10 -4 43 -4 33
1 76 1 95 0 l35 -2 -3 -65 c-4 -61 -5 -65 -28 -65 -23 0 -24 3 -24 58 l0 59
-32 -6 c-32 -5 -32 -6 -5 -9 23 -3 27 -8 27 -38 0 -31 -2 -34 -30 -34 -29 0
-30 2 -30 44 l0 43 -77 7 c-42 3 -93 6 -115 6 -37 0 -38 -1 -39 -37 l-2 -38
-7 40 -7 40 -3 -40 -3 -40 -7 40 -7 40 -2 -42 -1 -43 50 0 50 0 1 38 2 37 7
-40 7 -40 3 40 3 40 7 -40 6 -40 6 35 5 35 1 -40 c2 -35 5 -41 25 -42 84 -6
148 -16 153 -25 5 -8 -11 -9 -52 -5 -32 4 -138 11 -234 17 -96 6 -203 13 -237
16 l-63 6 0 89 c0 70 3 89 14 89 19 0 46 -27 46 -46 0 -10 11 -14 38 -12 36 1
36 1 5 5 -30 4 -32 7 -29 34 3 26 1 30 -15 26 -11 -3 -17 -1 -13 4 3 5 -6 9
-20 9 -21 0 -26 5 -26 26 l0 26 80 -3 79 -4 4 40 c2 22 5 -5 7 -60 l4 -100 6
120 5 120 35 6 c24 5 18 5 -17 3 -53 -4 -83 2 -83 17 0 4 7 6 15 3 8 -4 15 -1
15 5 0 6 -18 11 -42 11 l-43 1 31 27 c17 15 62 70 99 122 63 88 104 140 111
140 2 0 20 -25 40 -57z m1794 24 c42 -12 78 -26 80 -32 3 -6 -19 -13 -50 -17
-149 -19 -155 -21 -155 -48 0 -20 -4 -25 -24 -22 -13 1 -29 -4 -35 -12 -6 -7
-27 -16 -47 -19 -50 -7 -112 -35 -104 -47 3 -5 25 -10 48 -10 39 -1 41 -2 23
-15 -30 -23 -14 -27 50 -16 41 8 61 8 68 0 7 -6 7 -10 1 -9 -22 5 -35 -1 -44
-17 -8 -16 -4 -18 42 -17 29 1 70 9 92 18 40 17 40 17 18 -3 -13 -10 -23 -22
-23 -25 0 -3 22 -6 49 -6 33 0 56 6 74 20 40 32 41 23 3 -22 -20 -23 -36 -45
-36 -49 0 -4 -15 -9 -32 -11 -26 -2 -36 -10 -48 -35 -13 -27 -18 -30 -35 -21
-26 14 -352 275 -360 288 -8 14 61 40 105 40 33 0 39 4 49 30 5 17 17 30 25
30 8 0 17 8 21 19 14 46 107 49 245 8z m-3581 -83 c1 -14 -7 -24 -19 -27 -23
-6 -23 -5 -9 48 10 34 13 37 20 20 4 -11 8 -30 8 -41z m2603 1 c4 -16 6 -30 5
-31 -1 -1 -14 15 -29 37 -26 36 -26 38 -6 30 12 -4 26 -21 30 -36z m198 20 c0
-9 -12 -28 -27 -43 -15 -15 -27 -29 -26 -32 1 -3 -12 -5 -28 -6 -34 -1 -34 -2
-14 36 23 45 95 78 95 45z m-2929 -58 c-10 -9 -11 -8 -5 6 3 10 9 15 12 12 3
-3 0 -11 -7 -18z m767 7 c73 -8 72 -24 -1 -24 -69 0 -128 10 -121 21 6 11 39
11 122 3z m-578 -49 c0 -5 -5 -3 -10 5 -5 8 -10 20 -10 25 0 6 5 3 10 -5 5 -8
10 -19 10 -25z m290 25 c-24 -6 -24 -6 8 -13 43 -9 41 -30 -5 -46 -20 -8 -46
-23 -58 -35 l-21 -21 -20 60 -21 61 71 0 c39 0 60 -3 46 -6z m-510 -130 c-16
-69 -29 -116 -29 -105 -1 11 8 58 19 105 11 47 22 96 25 109 4 13 8 22 10 20
2 -3 -9 -60 -25 -129z m1200 105 c135 -13 246 -24 246 -24 1 -1 2 -11 2 -23
-1 -13 3 -131 7 -264 6 -174 5 -250 -3 -274 -7 -18 -42 -84 -79 -147 l-68
-114 -5 63 -5 63 -90 2 -90 2 80 -10 c43 -5 81 -11 82 -13 8 -7 8 -266 1 -266
-4 0 -8 58 -8 129 l0 128 -61 7 c-109 11 -99 24 -99 -124 0 -109 -2 -130 -15
-130 -13 0 -15 22 -15 135 0 121 -2 135 -17 136 -10 1 -4 5 12 9 27 7 25 8
-17 9 -80 2 -78 6 -78 -149 l0 -138 73 -6 c39 -3 128 -10 197 -14 l125 -9
-102 -1 c-99 -2 -103 -3 -104 -24 l-2 -23 -4 23 c-3 15 -10 22 -18 18 -8 -3
-17 -1 -20 4 -4 6 -48 9 -98 8 -51 0 -77 -3 -59 -5 30 -4 32 -7 32 -44 0 -21
5 -39 11 -39 5 0 8 4 5 9 -3 5 -3 24 1 42 l6 33 13 -39 12 -40 2 40 3 40 7
-45 7 -45 3 45 3 45 7 -45 7 -45 3 45 3 45 7 -40 7 -40 2 38 c0 24 5 36 12 32
6 -4 8 -13 5 -21 -3 -8 -1 -24 4 -36 8 -22 9 -21 11 7 l1 30 7 -29 c10 -48 31
-44 33 6 l1 43 7 -45 7 -45 3 45 c3 44 3 44 8 10 l5 -35 7 35 7 35 3 -45 3
-45 7 45 7 45 3 -50 3 -50 6 44 c9 63 31 66 33 4 l2 -48 3 48 c4 46 5 47 39
47 37 0 38 -2 28 -62 l-7 -38 -136 0 c-75 0 -173 3 -218 7 l-83 6 3 63 c2 56
4 64 22 64 19 0 20 6 17 142 -2 77 1 144 6 147 5 3 2 13 -7 23 -15 15 -16 3
-13 -142 l3 -158 -29 -7 c-22 -4 -31 -14 -36 -33 -3 -15 -17 -40 -31 -57 l-25
-30 0 543 c0 502 1 545 18 567 22 31 36 31 352 0z m458 -1 c24 -7 29 -19 10
-26 -27 -10 -177 15 -183 30 -5 13 6 14 72 8 43 -3 88 -9 101 -12z m-1419 -78
c-9 -8 -11 -7 -6 7 4 9 3 17 -1 17 -4 0 -8 10 -9 23 -2 20 0 19 14 -7 12 -22
12 -31 2 -40z m411 60 c0 -6 -79 -56 -87 -56 -13 1 60 60 74 60 7 0 13 -2 13
-4z m3248 -31 c-44 -40 -68 -47 -46 -12 8 12 18 28 22 35 4 6 19 12 34 12 l27
-1 -37 -34z m-3772 -61 c-5 -26 3 -31 21 -13 14 14 56 -25 51 -49 -4 -20 -166
-102 -186 -94 -14 5 -12 35 9 115 9 33 12 36 24 23 21 -20 19 -31 -2 -15 -16
13 -17 12 -5 -3 10 -13 11 -26 3 -54 -7 -25 -7 -34 0 -27 14 14 59 144 59 173
l0 25 15 -29 c8 -15 13 -39 11 -52z m694 51 c0 -10 -12 -16 -37 -17 l-38 -1
38 -4 37 -4 1 -512 c1 -282 1 -519 0 -527 -4 -39 -25 -60 -58 -60 l-33 0 0
570 0 570 45 0 c33 0 45 -4 45 -15z m807 -1 c-3 -3 -12 -4 -19 -1 -8 3 -5 6 6
6 11 1 17 -2 13 -5z m2338 -21 c4 -13 -2 -25 -22 -40 l-28 -23 38 0 c30 0 37
-4 37 -19 0 -14 -10 -21 -35 -25 -22 -4 -42 -17 -55 -36 l-21 -30 26 0 c14 0
40 7 56 16 36 18 40 16 33 -14 -8 -28 -32 -35 -83 -23 -39 9 -58 0 -25 -13 52
-20 124 3 124 40 0 12 37 34 56 34 2 0 4 -36 4 -81 0 -79 -1 -82 -34 -115 -19
-19 -41 -34 -49 -34 -8 0 -27 -14 -41 -31 -22 -26 -32 -30 -55 -26 -15 3 -33
1 -38 -4 -7 -7 -13 -7 -17 -1 -3 6 6 20 20 31 34 26 28 34 -14 19 -37 -14 -45
-9 -37 23 8 31 49 61 94 70 35 7 35 7 6 8 -17 1 -46 -10 -67 -24 l-36 -25 -31
35 c-25 29 -31 32 -36 17 -3 -9 -17 -30 -31 -46 l-25 -28 -23 21 c-31 29 -41
27 -65 -14 -21 -35 -35 -43 -46 -25 -12 20 -34 9 -40 -20 -4 -16 -13 -30 -20
-30 -14 0 -23 66 -17 131 l4 39 64 0 c56 0 63 -2 57 -17 -6 -16 -3 -16 18 2
13 11 34 31 47 45 16 17 22 19 18 8 -3 -12 -1 -15 10 -11 7 3 14 17 14 33 0
15 9 35 20 45 17 15 24 16 45 7 14 -6 25 -8 25 -3 0 5 -5 11 -10 13 -20 6 52
89 99 112 57 29 77 31 86 9z m-2421 1 c43 -6 46 -9 46 -35 0 -32 -2 -32 -74
-23 -43 6 -46 9 -46 35 0 32 2 32 74 23z m1264 -22 c14 -21 13 -22 -4 -15 -20
7 -34 22 -34 36 0 15 23 2 38 -21z m-2468 -148 c0 -2 -3 -4 -8 -4 -8 0 -42 64
-62 118 -7 17 -17 32 -22 32 -5 0 -6 5 -2 11 5 9 94 -140 94 -157z m262 8 c9
-10 13 -11 19 0 5 7 9 9 9 3 0 -5 -4 -16 -9 -24 -8 -12 -12 -12 -25 2 -12 12
-16 33 -14 89 l2 73 3 -65 c2 -35 9 -70 15 -78z m71 108 c-6 -24 -23 -37 -23
-18 0 12 18 38 26 38 1 0 0 -9 -3 -20z m2202 0 c3 -6 -1 -7 -9 -4 -18 7 -21
14 -7 14 6 0 13 -4 16 -10z m-1130 -17 c5 -15 -14 -16 -92 -7 -29 4 -53 10
-53 15 0 13 139 5 145 -8z m1111 2 c18 -13 17 -14 -17 -15 -56 0 -129 12 -129
21 0 15 124 10 146 -6z m-1267 -77 c-1 -77 -15 -202 -18 -156 -1 27 -21 51
-21 25 0 -12 -68 -53 -75 -45 -2 2 -5 58 -7 126 l-3 122 63 0 62 0 -1 -72z
m-1326 19 c10 -15 17 -64 21 -152 4 -72 10 -145 13 -162 l5 -33 -48 1 c-27 0
-67 4 -89 8 l-40 8 35 11 35 12 -32 -3 c-32 -3 -33 -3 -34 37 -1 23 -3 33 -6
23 -11 -43 -23 2 -23 89 l0 94 33 0 c24 0 28 -3 17 -10 -11 -7 -6 -10 20 -10
26 0 31 -3 20 -10 -8 -5 -30 -10 -47 -10 -25 0 -33 -4 -32 -17 0 -11 3 -13 6
-5 2 6 11 12 19 12 10 0 15 -14 16 -47 l2 -48 3 48 c3 38 8 47 23 47 17 0 20
-9 23 -97 2 -72 3 -63 3 32 l-1 130 -49 3 c-31 2 -54 -2 -65 -11 -30 -26 -136
-81 -122 -64 14 17 137 86 156 88 5 0 30 13 55 29 55 35 64 36 83 7z m2547 -7
c0 -15 -7 -20 -24 -20 -19 0 -24 5 -23 20 1 14 8 20 24 20 16 0 23 -6 23 -20z
m254 -11 c8 -9 -13 -10 -84 -5 -127 9 -144 28 -20 21 51 -3 98 -10 104 -16z
m186 -4 l105 -13 -110 6 c-106 5 -203 20 -130 20 17 0 77 -6 135 -13z m-440
-460 l0 -445 -25 0 -25 0 0 445 0 445 25 0 25 0 0 -445z m820 393 c0 -13 -89
-9 -315 12 -115 11 -213 20 -217 20 -5 0 -8 3 -8 8 0 4 121 -2 270 -12 148
-11 270 -24 270 -28z m-187 45 c-7 -2 -19 -2 -25 0 -7 3 -2 5 12 5 14 0 19 -2
13 -5z m170 -10 c-18 -2 -48 -2 -65 0 -18 2 -4 4 32 4 36 0 50 -2 33 -4z
m-653 -13 c0 -13 -110 -13 -130 0 -10 7 7 10 58 10 41 0 72 -4 72 -10z m160
-11 l75 -12 -3 -143 c-3 -125 -1 -144 12 -144 9 0 16 -5 16 -11 0 -6 -7 -8
-16 -5 -9 3 -68 7 -132 8 -112 2 -114 2 -42 8 74 6 75 6 18 8 -33 1 -58 7 -58
13 0 5 -4 7 -10 4 -6 -4 -9 35 -8 112 2 111 2 113 7 38 l5 -80 6 85 5 85 70
-4 c77 -3 126 -20 63 -21 -31 0 -38 -4 -38 -20 0 -16 7 -20 30 -20 22 0 30 5
30 17 0 11 3 14 10 7 5 -5 11 -59 13 -119 l3 -110 2 137 2 136 -47 6 c-27 3
-74 8 -105 11 -32 4 -58 11 -58 16 0 12 59 12 150 -2z m-2728 -64 c-3 -5 -10
3 -15 18 -5 15 -16 27 -25 27 -14 0 -15 2 -2 9 10 7 18 3 31 -17 9 -15 14 -31
11 -37z m-417 45 c-3 -5 -12 -10 -18 -10 -7 0 -6 4 3 10 19 12 23 12 15 0z
m362 -32 c-3 -8 -6 -5 -6 6 -1 11 2 17 5 13 3 -3 4 -12 1 -19z m-267 7 c0 -2
-15 -12 -32 -20 l-33 -16 25 20 c24 20 40 26 40 16z m2848 -25 l35 0 -5 -125
-5 -125 76 0 c42 0 106 -3 144 -7 64 -6 67 -5 67 16 0 12 -6 21 -15 21 -12 0
-15 18 -15 101 l0 102 68 -6 c37 -4 77 -7 90 -7 22 0 22 -2 22 -133 l0 -134
-157 5 c-87 2 -212 7 -278 10 l-120 7 -3 144 -3 144 32 -7 c17 -3 47 -6 67 -6z
m-2926 -76 c-4 -75 -4 -76 17 -65 18 10 21 22 23 74 l2 62 3 -62 c4 -62 4 -62
29 -53 19 8 29 6 40 -4 16 -16 19 -30 5 -22 -5 3 -11 0 -14 -8 -3 -8 -20 -14
-40 -14 -19 0 -44 -5 -55 -11 -11 -6 -22 -11 -25 -11 -5 0 3 160 8 178 9 26
10 10 7 -64z m364 0 c9 3 20 6 25 6 5 0 9 7 9 15 0 8 2 15 4 15 2 0 11 3 19 6
14 5 57 -50 57 -73 0 -15 -118 -76 -134 -70 -8 3 -18 19 -24 35 -10 29 -10 30
30 35 40 5 56 13 46 22 -3 3 -17 1 -32 -4 l-26 -11 2 53 c1 51 2 51 5 9 3 -34
8 -42 19 -38z m-396 -50 c0 -78 -3 -95 -14 -91 -18 7 -28 -27 -12 -43 8 -8 3
-8 -16 1 -27 12 -28 15 -28 88 0 71 2 77 32 108 18 18 33 33 35 33 2 0 3 -43
3 -96z m1589 44 l-2 -53 -7 40 -7 40 -2 -41 c-1 -38 -23 -75 -37 -62 -3 3 -6
25 -7 49 -2 37 1 44 16 43 10 -1 16 0 13 4 -5 4 22 30 32 32 1 0 1 -24 1 -52z
m1901 -74 l0 -125 -27 3 -28 3 -3 123 -3 122 31 0 30 0 0 -126z m222 75 l43
-41 -22 -15 c-27 -18 -30 -33 -5 -33 14 -1 12 -5 -10 -25 -33 -28 -36 -40 -8
-25 14 7 20 8 20 0 0 -6 -12 -16 -27 -23 -16 -6 -33 -18 -38 -25 -8 -10 -13
-5 -23 21 -7 20 -20 38 -28 41 -12 4 -11 0 4 -19 21 -26 19 -67 -4 -86 -17
-14 -5 -40 38 -86 35 -36 29 -57 -13 -51 -16 3 -29 1 -29 -3 0 -17 -37 -18
-67 -2 l-33 18 0 86 c0 79 2 87 23 97 l22 11 -22 0 c-20 1 -23 6 -23 46 0 34
4 45 16 45 8 0 20 13 25 30 9 25 14 28 29 20 29 -16 37 -12 60 25 12 19 23 35
25 35 2 0 23 -18 47 -41z m-1755 -36 c-3 -10 -5 -2 -5 17 0 19 2 27 5 18 2
-10 2 -26 0 -35z m33 17 c0 -16 -4 -30 -10 -30 -5 0 -10 14 -10 30 0 17 5 30
10 30 6 0 10 -13 10 -30z m112 -14 c3 -28 1 -33 -17 -32 -29 1 -36 66 -7 66
15 0 21 -8 24 -34z m28 22 c0 -9 4 -8 10 2 7 11 10 5 10 -22 0 -41 -13 -49
-30 -19 -13 25 -13 51 0 51 6 0 10 -6 10 -12z m-2220 -33 c0 -17 -2 -18 -25
-9 -13 5 -14 8 -3 15 19 13 28 11 28 -6z m793 -11 c27 -8 20 -24 -10 -24 -84
0 -163 14 -163 27 0 12 14 14 78 8 42 -4 85 -9 95 -11z m-186 -50 c2 -6 -4
-14 -14 -17 -10 -3 -32 -10 -49 -15 -52 -16 -61 3 -12 26 46 22 69 24 75 6z
m-448 -46 c-47 -24 -62 -27 -76 -18 -17 11 -17 11 0 6 9 -3 24 -3 32 0 14 6
13 8 -2 20 -16 12 -16 15 -3 24 8 6 23 8 33 6 9 -2 17 0 17 4 0 5 13 3 28 -2
l29 -11 -58 -29z m74 45 c-7 -2 -19 -2 -25 0 -7 3 -2 5 12 5 14 0 19 -2 13 -5z
m1447 3 c0 -8 -71 -48 -76 -43 -3 3 11 15 33 26 42 22 43 23 43 17z m395 -11
c143 -8 270 -15 283 -15 18 0 22 -6 22 -30 l0 -30 -67 -2 c-42 -1 -53 -3 -30
-5 20 -2 37 -8 37 -14 0 -5 -22 -7 -52 -4 -68 7 -398 25 -452 25 -30 0 -37 -3
-26 -10 11 -7 3 -10 -29 -10 -37 0 -42 2 -31 15 10 12 10 15 -1 16 -8 1 4 5
26 9 39 7 39 7 8 9 -30 1 -33 4 -33 31 0 36 -21 35 345 15z m-1305 -46 l0 -40
-84 7 c-77 6 -88 5 -121 -16 -31 -19 -39 -20 -46 -9 -5 8 -4 15 1 17 6 2 10
12 10 21 0 22 56 40 131 43 l54 2 -48 3 c-74 6 -47 18 32 15 l71 -4 0 -39z
m-285 -4 c28 -14 25 -14 -50 -10 -139 8 -159 8 -188 -4 -16 -6 -37 -11 -48
-11 -10 0 -19 -4 -19 -9 0 -13 -43 -22 -54 -11 -9 9 4 18 36 24 7 2 29 10 48
19 47 22 232 23 275 2z m-85 -35 c-42 -5 -47 -7 -20 -9 l35 -1 -32 -21 c-18
-12 -33 -22 -33 -24 0 -1 20 4 45 13 52 17 75 11 75 -18 0 -19 -6 -20 -95 -19
l-95 1 0 38 c0 44 7 47 115 47 l60 0 -55 -7z m240 -274 l0 -274 -42 0 c-24 1
-54 -2 -67 -7 -22 -7 -23 -5 -19 33 2 22 0 38 -4 36 -14 -9 -9 361 5 388 20
38 88 94 120 97 4 1 7 -122 7 -273z m1745 264 c4 -6 -7 -10 -24 -10 -17 0 -31
5 -31 10 0 6 11 10 24 10 14 0 28 -4 31 -10z m-2353 -48 c-41 -18 -79 -31 -85
-29 -7 3 22 20 63 40 41 20 79 33 84 29 6 -3 -22 -21 -62 -40z m231 -22 c-4
-4 -20 -10 -35 -14 -26 -6 -28 -4 -28 22 0 22 7 32 33 44 l32 15 3 -30 c2 -16
0 -33 -5 -37z m507 -200 l0 -270 -60 0 -60 0 0 270 0 270 60 0 60 0 0 -270z
m2488 256 c130 -1 243 -5 250 -10 7 -4 12 -1 12 8 0 11 9 16 30 16 23 0 30 -4
30 -20 0 -17 -7 -20 -42 -22 l-43 -1 43 -4 c28 -3 42 -9 42 -19 0 -17 -20 -17
-230 -5 -85 6 -208 13 -272 16 -90 5 -118 10 -122 22 -10 24 4 35 35 28 16 -4
136 -8 267 -9z m-1468 -181 l0 -185 -30 0 -30 0 0 185 0 185 30 0 30 0 0 -185z
m-190 21 c0 -128 -3 -157 -16 -170 -12 -13 -15 -31 -11 -81 4 -56 2 -65 -12
-65 -14 0 -16 24 -19 218 -1 119 1 213 5 207 16 -21 34 -14 39 15 4 16 8 30
10 30 2 0 4 -69 4 -154z m222 -18 l2 -173 3 143 4 143 77 -6 c159 -12 182 -16
182 -31 0 -12 -4 -12 -20 -4 -22 12 -117 10 -112 -2 1 -5 2 -62 2 -128 l0
-120 60 0 60 0 2 118 2 117 3 -117 c3 -96 6 -118 18 -118 13 0 15 24 15 146 0
94 4 143 10 139 6 -4 11 -67 12 -148 l2 -142 3 124 c3 103 7 126 21 137 9 7
20 14 25 14 4 0 7 -61 7 -135 0 -83 4 -135 10 -135 6 0 11 56 12 143 l2 142 3
-142 c5 -204 23 -184 23 24 0 106 3 164 10 157 5 -5 11 -47 13 -94 l3 -85 2
88 c2 80 4 87 22 87 19 0 20 -7 20 -127 -1 -127 -9 -163 -39 -163 -6 0 -11 -4
-11 -10 0 -5 7 -6 17 -3 11 4 14 3 9 -5 -4 -7 -1 -12 8 -12 28 0 17 -20 -11
-21 l-28 -2 28 -4 c24 -4 27 -9 27 -43 l0 -38 -80 0 -80 -1 0 40 0 39 48 1
c42 1 44 2 17 9 -70 18 -75 15 -75 -40 0 -38 -4 -50 -15 -50 -9 0 -15 10 -15
26 0 14 -7 33 -16 42 -15 15 -16 13 -12 -27 l4 -43 -51 6 c-27 3 -110 6 -182
6 l-133 0 0 40 0 40 50 0 50 0 1 -37 2 -38 7 40 7 40 2 -37 c1 -50 18 -49 23
2 l4 40 -38 0 -38 0 0 180 c0 113 4 180 10 180 6 0 11 -66 12 -172z m483 162
c-27 -12 -35 -12 -35 0 0 6 12 10 28 9 24 0 25 -1 7 -9z m-2141 -6 c9 -4 16
-18 16 -33 0 -24 -6 -30 -41 -40 -41 -12 -41 -13 -35 -53 4 -22 14 -47 23 -56
15 -16 15 -17 0 -20 -15 -3 -17 -21 -17 -153 0 -122 -3 -149 -14 -149 -8 0
-21 -3 -30 -6 -14 -5 -16 18 -16 219 l0 225 33 13 c46 18 80 46 65 52 -7 3
-10 6 -6 6 3 1 13 -2 22 -5z m1976 -15 c0 -10 -167 -12 -247 -3 -98 12 -54 19
97 16 86 -2 150 -7 150 -13z m232 -119 c-2 -114 -6 -140 -18 -140 -11 0 -14
24 -14 140 0 127 2 140 18 140 15 0 17 -12 14 -140z m-2242 122 c0 -11 -80
-36 -87 -28 -7 6 54 35 75 36 6 0 12 -4 12 -8z m1509 -217 c0 -113 -5 -205
-10 -205 -10 0 -12 393 -2 403 3 4 8 7 10 7 2 0 3 -92 2 -205z m1071 197 c-6
-2 -9 -13 -9 -25 1 -17 2 -18 6 -4 3 10 14 17 29 17 l24 0 0 -170 0 -170 -140
0 -140 0 -2 163 -2 162 -3 -157 c-3 -131 -6 -158 -18 -158 -13 0 -15 27 -15
175 l0 174 140 -2 c77 -1 135 -3 130 -5z m585 -12 c94 -6 197 -13 230 -16 l60
-6 -3 -244 -3 -244 -24 0 -25 0 -2 213 -3 212 -2 -205 c-2 -112 -7 -208 -11
-212 -9 -9 -542 13 -542 22 0 4 9 15 20 25 27 24 25 33 -7 37 l-28 3 -2 218
-2 218 87 -6 c48 -3 164 -10 257 -15z m-2840 -10 c13 -6 -10 -9 -70 -10 -49
-1 -82 -4 -72 -7 15 -4 17 -19 17 -139 0 -130 1 -134 19 -124 11 5 36 10 55
10 l36 0 0 -55 0 -55 -80 0 -80 0 0 195 0 195 78 -1 c42 0 86 -4 97 -9z m3565
0 c0 -7 6 -7 20 0 24 13 26 2 5 -26 -21 -28 -18 -37 9 -30 23 6 25 4 24 -34 0
-26 -6 -44 -17 -50 -14 -8 -14 -11 -1 -19 12 -8 12 -13 -4 -30 -13 -14 -16
-28 -11 -50 6 -27 3 -32 -19 -41 -33 -12 -33 -26 -1 -34 27 -7 30 -17 14 -47
-9 -17 -7 -21 10 -26 15 -4 18 -9 12 -17 -17 -20 0 -68 31 -85 22 -12 28 -22
25 -39 -3 -16 1 -26 12 -29 33 -12 42 -25 29 -40 -9 -11 -9 -19 0 -34 10 -16
9 -26 -4 -56 -14 -27 -15 -39 -6 -53 7 -11 9 -38 5 -69 -5 -48 -8 -51 -32 -49
-14 1 -47 -8 -72 -21 -44 -22 -48 -22 -78 -7 -17 9 -31 20 -31 24 0 4 -18 6
-41 4 -22 -3 -45 0 -51 6 -14 14 70 52 116 52 46 0 39 15 -10 23 -23 4 -47 1
-63 -7 -14 -8 -39 -19 -55 -25 l-29 -12 23 -24 c18 -19 20 -26 9 -29 -8 -3
-25 -10 -39 -15 -35 -12 -58 6 -56 46 1 23 12 40 46 68 57 47 57 61 3 57 -23
-2 -52 2 -63 8 -21 11 -21 12 -3 25 17 13 17 14 1 15 -10 0 -18 5 -18 10 0 6
8 13 18 17 20 7 62 43 62 54 0 4 -14 10 -31 14 -24 5 -29 11 -27 28 2 16 10
22 28 22 18 0 26 6 28 22 3 23 53 50 72 38 9 -6 10 1 5 24 -5 24 -3 32 10 37
13 5 15 14 11 40 -6 28 -3 36 23 55 24 18 28 26 20 41 -10 19 4 27 16 8 3 -5
14 -10 23 -10 16 1 16 1 0 10 -23 14 -18 101 8 132 17 21 17 21 -9 -1 -15 -14
-27 -32 -27 -40 -1 -13 -3 -12 -15 3 -21 28 -19 51 8 70 21 15 21 16 3 30 -10
9 -24 17 -30 19 -14 5 11 36 39 47 29 12 75 12 75 0z m-3772 -23 c-23 -9 -28
-17 -28 -44 0 -19 5 -33 13 -34 10 0 10 -2 0 -6 -10 -3 -13 -43 -13 -148 0
-114 -3 -145 -15 -155 -13 -11 -15 11 -15 188 0 219 -4 206 59 208 l26 1 -27
-10z m240 -182 c-2 -151 -6 -185 -17 -185 -11 0 -13 17 -7 92 3 50 6 133 6
185 0 57 4 93 10 93 7 0 10 -63 8 -185z m3819 153 c-3 -8 -6 -5 -6 6 -1 11 2
17 5 13 3 -3 4 -12 1 -19z m-4148 8 c-15 -13 -49 -25 -49 -17 0 5 8 12 18 14
24 6 36 8 31 3z m11 -36 c0 -15 -7 -20 -25 -20 -29 0 -33 15 -7 29 25 15 32
13 32 -9z m1870 -15 c6 4 10 -10 10 -33 0 -26 -7 -45 -20 -57 -27 -25 -36 -13
-45 59 l-7 60 26 -18 c15 -9 31 -14 36 -11z m2210 -52 l-1 -68 -26 49 -25 50
22 18 c12 10 24 18 26 18 2 0 4 -30 4 -67z m-2732 -118 c-2 -1 -22 0 -45 3
l-43 4 0 68 c0 73 8 87 47 82 11 -2 25 3 30 10 5 8 9 -23 11 -76 2 -49 2 -89
0 -91z m-1488 -42 c0 -98 3 -188 6 -200 6 -20 3 -23 -25 -23 l-31 0 0 200 0
200 25 0 25 0 0 -177z m4130 132 c26 -31 -12 -59 -50 -35 -12 7 -12 12 4 29
23 25 30 26 46 6z m-65 -35 c11 -12 31 -20 50 -20 48 0 65 -32 65 -125 0 -69
-9 -91 -26 -64 -3 6 -15 9 -25 6 -10 -3 -22 -1 -25 5 -3 5 -15 8 -25 5 -28 -7
-24 22 7 54 33 34 25 64 -21 83 -33 14 -52 46 -40 66 9 15 20 12 40 -10z
m-4672 -2 c36 -17 34 -37 -3 -44 -36 -8 -39 -31 -5 -44 14 -5 25 -16 25 -25 0
-20 -17 -19 -28 1 -9 16 -11 16 -33 0 -13 -9 -32 -16 -42 -16 -27 0 -7 -24 33
-40 24 -10 28 -15 19 -26 -6 -8 -20 -14 -30 -14 -30 0 -82 -52 -73 -74 5 -14
14 -17 40 -13 31 5 34 3 34 -18 0 -48 -59 -74 -80 -36 -5 11 -10 35 -10 53 0
19 -6 43 -14 54 -10 13 -12 35 -9 67 5 44 9 50 49 73 24 14 44 32 44 40 0 16
40 74 50 74 3 0 18 -6 33 -12z m2947 -28 c0 -5 -9 -10 -20 -10 -11 0 -20 5
-20 10 0 6 9 10 20 10 11 0 20 -4 20 -10z m-2400 -110 c0 -95 -9 -110 -44 -74
-17 16 -19 25 -17 61 1 11 -3 24 -8 28 -20 12 -11 35 22 55 17 11 35 20 40 20
4 0 7 -40 7 -90z m2407 3 l1 -82 -174 4 c-96 3 -253 7 -348 10 -139 3 -184 1
-217 -10 -27 -10 -46 -12 -52 -6 -6 6 11 15 44 25 46 14 97 16 354 11 165 -3
316 -8 335 -10 19 -2 29 -2 23 1 -9 4 -13 29 -13 76 0 66 1 69 23 66 21 -3 22
-8 24 -85z m1322 68 c16 -12 22 -24 18 -35 -9 -23 -18 -19 -50 20 -25 29 -26
34 -10 34 10 0 29 -9 42 -19z m-2169 -61 c0 -33 -4 -60 -10 -60 -6 0 -10 27
-10 60 0 33 4 60 10 60 6 0 10 -27 10 -60z m-233 -22 c-3 -8 -6 -5 -6 6 -1 11
2 17 5 13 3 -3 4 -12 1 -19z m2368 12 c4 -6 23 -18 43 -26 l37 -16 -33 -10
c-31 -8 -32 -10 -26 -45 l7 -36 -33 7 c-19 3 -38 1 -46 -5 -12 -9 -14 1 -14
58 0 38 3 73 7 76 10 11 51 8 58 -3z m-3205 -50 c16 -5 -11 -8 -77 -9 -63 -1
-103 3 -103 9 0 12 143 12 180 0z m2013 3 c-13 -2 -35 -2 -50 0 -16 2 -5 4 22
4 28 0 40 -2 28 -4z m-1167 -20 c166 -4 244 -10 244 -17 0 -11 -102 -14 -382
-8 -133 2 -138 3 -138 23 0 15 4 19 16 15 9 -3 126 -9 260 -13z m-1053 -3
c-12 -5 -31 -18 -42 -29 -15 -15 -33 -21 -58 -20 l-38 2 48 10 c26 6 47 16 47
23 0 14 16 22 45 23 18 0 18 -1 -2 -9z m219 -17 c2 -10 2 -30 0 -45 l-4 -28
-88 0 -88 0 -4 45 -3 45 92 0 c79 0 92 -2 95 -17z m365 -15 c-3 -7 -5 -2 -5
12 0 14 2 19 5 13 2 -7 2 -19 0 -25z m2060 25 c69 -5 81 -8 72 -20 -10 -11
-57 -12 -263 -8 -267 6 -316 10 -316 25 0 11 378 14 507 3z m-607 -23 c118 -5
313 -13 433 -16 206 -7 217 -8 217 -27 0 -18 -7 -19 -272 -12 -163 5 -276 12
-279 18 -4 5 -10 0 -14 -11 -6 -21 -7 -22 -291 -15 -212 5 -284 3 -284 -5 0
-13 -66 -17 -74 -4 -12 21 15 31 89 35 l80 3 -87 2 c-86 2 -88 3 -88 26 l0 24
178 -4 c97 -3 274 -9 392 -14z m-2010 -25 c0 -41 -26 -49 -36 -11 -7 29 1 46
22 46 9 0 14 -11 14 -35z m1418 13 c-2 -16 -14 -25 -45 -34 -42 -12 -43 -12
-43 11 0 19 7 27 33 34 51 15 59 13 55 -11z m-240 -3 c1 -1 0 -10 -4 -19 -7
-18 -88 -21 -302 -9 -110 5 -122 8 -122 25 0 18 10 18 213 12 116 -4 213 -8
215 -9z m-1533 -5 c3 -5 15 -10 26 -10 24 0 26 -36 2 -62 -15 -17 -15 -19 0
-36 10 -10 17 -33 17 -51 0 -33 0 -33 -25 -17 -23 15 -26 14 -61 -6 -27 -16
-36 -18 -32 -8 3 8 9 23 13 33 6 14 2 17 -20 17 -21 0 -25 -4 -20 -19 9 -29
-11 -35 -35 -11 l-21 21 26 25 c29 26 13 33 -22 9 -33 -23 -35 -2 -3 28 17 16
31 23 35 17 11 -18 35 -11 60 18 14 16 22 34 19 45 -4 12 0 17 15 17 11 0 23
-4 26 -10z m305 -15 c0 -20 -6 -27 -30 -31 -16 -4 -30 -12 -30 -19 0 -7 -14
-15 -31 -19 -50 -10 -59 -7 -59 14 0 11 -6 19 -12 18 -8 -2 -14 9 -16 25 -3
23 0 27 23 27 16 0 28 -7 33 -19 7 -20 18 -18 120 28 1 0 2 -10 2 -24z m410 1
c0 -22 -4 -24 -42 -24 -24 1 -53 -2 -66 -6 -21 -7 -23 -5 -20 16 3 23 30 33
101 37 22 1 27 -3 27 -23z m108 18 c13 -4 22 -14 22 -25 0 -17 -8 -19 -60 -19
-57 0 -60 1 -60 25 0 22 4 25 38 25 20 0 47 -3 60 -6z m187 -14 c9 -29 -2 -40
-41 -40 -31 0 -34 2 -34 30 0 28 3 30 34 30 26 0 36 -5 41 -20z m85 10 c0 -5
-7 -7 -15 -4 -8 4 -15 8 -15 10 0 2 7 4 15 4 8 0 15 -4 15 -10z m526 -37 c4
-21 15 -45 26 -54 19 -17 26 -89 8 -89 -5 0 -10 -7 -10 -16 0 -8 -4 -12 -10
-9 -6 3 -11 -34 -13 -97 -2 -63 -4 -29 -5 85 l-2 187 -40 0 c-31 0 -38 3 -34
15 4 9 19 15 40 15 30 0 34 -3 40 -37z m1747 3 c210 -9 302 -17 310 -26 10
-10 -50 -11 -298 -5 -170 3 -320 9 -332 12 -13 3 -23 11 -23 19 0 8 10 14 23
14 12 -1 156 -7 320 -14z m-2273 -15 c0 -23 -16 -36 -25 -21 -9 14 1 40 15 40
5 0 10 -9 10 -19z m277 9 c124 0 144 -2 150 -16 4 -10 -1 -22 -10 -29 -15 -11
-17 -40 -17 -259 0 -157 4 -246 10 -246 6 0 10 75 10 205 0 178 2 204 15 199
13 -5 15 -37 15 -200 0 -187 1 -194 20 -194 19 0 20 7 20 210 l0 210 -37 1
c-26 1 -30 3 -14 6 12 3 34 2 46 -1 l24 -6 -2 -219 -2 -218 -235 -5 c-129 -3
-242 -2 -250 3 -9 5 8 9 48 9 l62 0 0 230 0 230 -30 0 c-30 0 -43 23 -17 33 7
3 5 6 -5 6 -10 1 -18 -5 -18 -13 0 -8 -6 -16 -12 -19 -7 -2 4 -8 26 -12 31 -6
35 -10 22 -17 -9 -5 -21 -6 -26 -3 -7 4 -10 -69 -10 -209 l0 -216 -25 0 -25 0
0 276 1 277 61 -7 c33 -3 126 -6 205 -6z m408 1 c-14 -13 -85 -34 -92 -27 -3
3 5 9 18 14 13 5 31 12 39 15 24 9 45 8 35 -2z m1153 -14 c72 2 82 0 82 -15 0
-16 -18 -17 -257 -11 -142 4 -270 7 -285 8 -21 1 -26 5 -21 17 6 15 25 16 202
8 108 -5 233 -8 279 -7z m-2363 -7 c4 -6 -43 -10 -134 -10 -76 0 -148 -3 -158
-6 -12 -5 -15 -4 -8 4 15 15 47 19 177 21 69 0 119 -3 123 -9z m145 -305 l0
-315 -59 0 -60 0 0 233 c-1 127 -4 264 -7 304 l-7 72 34 9 c19 6 49 11 67 11
l32 1 0 -315z m108 309 l22 -6 0 -309 0 -309 -60 0 -60 0 0 315 0 315 38 0
c20 0 47 -3 60 -6z m767 -4 c-28 -12 -55 -12 -55 0 0 6 17 10 38 9 30 0 33 -2
17 -9z m-577 -50 l3 -45 42 2 c41 2 41 1 7 -5 -35 -7 -35 -7 -41 -72 -4 -36
-7 -129 -8 -207 0 -78 -6 -154 -12 -170 -11 -30 -47 -73 -61 -73 -4 0 -8 140
-8 311 l0 310 38 -3 c36 -3 37 -4 40 -48z m1299 -83 c-2 -23 -3 -1 -3 48 0 50
1 68 3 42 2 -26 2 -67 0 -90z m-717 113 c0 -5 -12 -10 -27 -9 l-28 1 25 8 c14
4 26 8 28 9 1 1 2 -3 2 -9z m270 -245 l0 -255 -30 0 -30 0 0 255 0 255 30 0
30 0 0 -255z m1678 239 l52 -6 0 -257 c0 -141 -4 -260 -8 -266 -4 -5 -21 -18
-39 -28 -27 -15 -55 -18 -174 -16 -80 0 -136 5 -129 9 23 14 -3 52 -51 78
l-44 23 153 -7 c142 -6 154 -5 167 12 17 24 11 34 -21 34 l-24 0 0 165 c0 91
-3 165 -7 165 -5 0 -7 -75 -7 -167 l2 -168 -9 165 c-5 91 -11 171 -14 178 -3
7 -25 22 -49 32 -47 21 -87 19 -138 -7 l-28 -14 0 -169 c0 -143 -2 -170 -15
-170 -12 0 -15 28 -18 168 l-3 167 -3 -182 c-4 -220 -3 -205 -20 -211 -9 -3
-11 0 -6 8 5 8 3 11 -6 8 -8 -2 -15 -17 -17 -31 -4 -29 -31 -37 -50 -14 -9 10
-17 312 -13 476 l1 44 233 -7 c127 -3 256 -9 285 -12z m-3440 -1 c-10 -2 -28
-2 -40 0 -13 2 -5 4 17 4 22 1 32 -1 23 -4z m1599 -22 c-2 -31 -17 -32 -17 -2
0 16 8 31 16 31 2 0 2 -13 1 -29z m45 -231 l3 -260 -25 1 c-14 0 -19 3 -12 6
9 3 12 65 12 259 0 157 4 254 10 254 6 0 10 -101 12 -260z m393 241 c82 -37
80 -30 80 -321 l0 -258 -29 -6 c-16 -3 -86 -6 -157 -6 -108 0 -129 2 -129 15
0 13 23 15 150 15 l150 0 0 238 c0 192 -3 242 -15 258 -36 52 -152 71 -211 35
-33 -20 -81 -88 -70 -99 7 -6 22 -7 194 -10 56 -1 92 -6 92 -13 0 -7 -47 -8
-150 -3 l-150 7 0 -175 0 -174 -52 -1 c-47 0 -48 0 -10 4 l42 4 0 188 c0 187
0 189 26 227 15 21 34 45 43 52 54 44 131 53 196 23z m375 4 c0 -16 -55 -22
-64 -6 -8 13 5 21 36 21 18 0 28 -5 28 -15z m-2172 -17 c-2 -16 -12 -24 -34
-29 -27 -5 -31 -3 -26 13 2 10 -1 18 -7 18 -6 0 -11 -9 -11 -19 0 -20 -9 -25
-72 -36 -37 -6 -38 -5 -38 24 0 28 3 30 44 36 25 4 48 5 53 2 4 -2 17 -1 28 4
11 4 30 8 43 8 19 1 23 -4 20 -21z m202 -8 c0 -29 -1 -30 -49 -30 -26 0 -69 3
-95 6 -40 6 -46 10 -46 30 0 24 2 24 95 24 l95 0 0 -30z m2130 21 l45 -8 -45
-1 c-25 0 -65 3 -90 7 l-45 8 45 1 c25 0 65 -3 90 -7z m980 -240 c0 -259 0
-261 -41 -261 -5 0 -9 107 -9 255 l0 255 25 0 25 0 0 -249z m-3530 229 c0 -5
-17 -9 -37 -9 -38 1 -38 1 -8 9 43 11 45 11 45 0z m1474 -20 c-11 -9 -84 -1
-84 11 0 4 19 9 43 11 41 3 58 -6 41 -22z m1353 -332 c-1 -68 -3 -13 -3 122 0
135 2 190 3 123 2 -68 2 -178 0 -245z m61 345 c-2 -10 -13 -19 -26 -21 -17 -3
-22 2 -22 17 0 16 6 21 26 21 19 0 25 -5 22 -17z m-1918 -3 c0 -5 -15 -10 -32
-10 -25 0 -29 3 -18 10 20 13 50 13 50 0z m1412 -235 c3 -203 1 -235 -12 -236
-8 -1 -4 -5 10 -9 20 -7 16 -8 -22 -9 -27 -1 -48 4 -48 9 0 6 6 10 13 10 9 0
11 52 9 235 l-3 235 25 0 25 0 3 -235z m212 212 c4 -15 0 -18 -17 -13 -12 3
-56 6 -98 6 -53 0 -78 4 -82 13 -4 10 18 12 94 12 87 0 98 -2 103 -18z m206
-212 l0 -235 -35 0 -35 0 0 209 0 210 33 25 c17 14 33 26 35 26 1 0 2 -106 2
-235z m-2805 215 c-3 -5 -21 -10 -38 -10 -24 0 -28 3 -17 10 20 13 63 13 55 0z
m3237 -18 l28 -16 2 -171 3 -170 38 -3 c20 -2 35 -7 32 -13 -4 -5 -74 -9 -156
-9 -116 0 -150 3 -147 13 3 7 28 13 66 15 l62 3 0 119 0 120 -40 0 -40 0 0
-115 c0 -70 -4 -115 -10 -115 -16 0 -13 325 3 338 19 16 80 30 107 24 14 -2
37 -12 52 -20z m-350 -189 c2 -254 1 -243 18 -253 11 -7 1 -10 -32 -10 -53 0
-78 19 -26 21 19 1 25 3 15 6 -14 4 -17 11 -13 26 3 12 6 109 6 215 0 164 2
192 15 192 13 0 15 -29 17 -197z m-2894 145 c-2 -36 -7 -44 -25 -46 -18 -3
-23 1 -23 20 0 13 -3 33 -6 46 -6 19 -3 22 25 22 32 0 32 -1 29 -42z m210 28
c-18 -7 -24 -16 -19 -22 6 -5 11 -99 12 -209 1 -180 0 -200 -15 -203 -13 -3
-14 -7 -6 -17 9 -10 6 -16 -10 -25 -16 -8 -21 -8 -26 3 -3 8 -4 103 -2 211 3
202 3 205 -36 190 -14 -5 -16 -32 -16 -200 0 -187 -1 -194 -20 -194 -19 0 -20
7 -20 199 l0 199 53 9 c42 7 51 12 49 27 -6 34 6 46 45 45 l38 -1 -27 -12z
m222 4 c0 -6 -38 -10 -95 -10 -57 0 -95 4 -95 10 0 6 38 10 95 10 57 0 95 -4
95 -10z m1160 -195 c0 -130 -4 -205 -10 -205 -6 0 -10 74 -9 205 1 113 5 205
10 205 5 0 9 -92 9 -205z m905 173 c3 -18 5 -111 3 -206 l-3 -172 43 0 42 0 0
200 c0 171 2 200 15 200 13 0 15 -29 15 -205 l0 -205 -84 0 c-46 0 -91 3 -100
6 -14 5 -16 33 -16 205 0 170 2 199 15 199 13 0 15 -29 15 -200 0 -184 1 -200
18 -200 16 0 17 15 14 205 -2 131 1 205 7 205 6 0 13 -15 16 -32z m-2355 -3
c0 -21 -5 -25 -29 -25 -16 0 -36 -3 -45 -6 -12 -5 -16 0 -16 19 0 26 12 32 68
36 17 1 22 -4 22 -24z m100 -190 c0 -130 -4 -205 -10 -205 -6 0 -10 75 -10
205 0 130 4 205 10 205 6 0 10 -75 10 -205z m227 -132 c-1 -65 -3 -14 -3 112
0 127 2 180 3 118 2 -62 2 -165 0 -230z m-187 112 l0 -215 75 0 c43 0 75 -4
75 -10 0 -11 -91 -12 -159 -2 -42 7 -71 32 -37 32 14 0 16 25 16 205 0 176 2
205 15 205 13 0 15 -31 15 -215z m60 203 c0 -14 -30 -48 -42 -48 -4 0 -8 14
-8 30 0 25 4 30 25 30 14 0 25 -5 25 -12z m753 5 c-7 -2 -19 -2 -25 0 -7 3 -2
5 12 5 14 0 19 -2 13 -5z m-1273 -22 c0 -5 -7 -14 -15 -21 -23 -19 -6 -29 63
-36 62 -7 62 -7 62 -39 0 -31 -1 -31 -50 -31 -34 0 -47 3 -40 10 5 5 10 13 10
16 0 9 -48 30 -68 30 -10 0 -24 6 -30 12 -10 10 -6 18 20 40 34 29 48 34 48
19z m2467 -38 c-3 -10 -5 -4 -5 12 0 17 2 24 5 18 2 -7 2 -21 0 -30z m383
-154 l0 -180 -22 3 c-23 3 -23 6 -26 163 -3 153 -2 161 19 178 12 9 23 17 25
17 2 0 4 -81 4 -181z m-2670 -54 l0 -205 -30 0 -30 0 0 199 0 200 28 4 c15 2
28 5 30 6 1 0 2 -91 2 -204z m17 123 c-2 -18 -4 -6 -4 27 0 33 2 48 4 33 2
-15 2 -42 0 -60z m2269 -236 c-3 -2 -21 -1 -41 2 l-35 7 0 122 0 122 38 20 37
20 3 -144 c1 -79 0 -146 -2 -149z m-388 161 c-4 -168 -23 -178 -27 -13 -2 118
1 140 20 140 6 0 9 -50 7 -127z m70 24 c2 -68 -1 -97 -9 -97 -7 0 -8 -7 -4
-17 9 -22 13 -47 14 -95 1 -26 6 -38 19 -41 9 -3 -32 -4 -93 -4 -60 0 -91 2
-68 4 40 4 42 6 45 41 2 26 8 38 21 40 14 3 17 -4 17 -37 0 -23 5 -41 10 -41
11 0 12 22 10 223 -1 119 0 128 17 125 16 -3 18 -16 21 -101z m-1531 -134 c-1
-43 -3 -8 -3 77 0 85 2 120 3 78 2 -43 2 -113 0 -155z m1763 63 c0 -144 -4
-168 -26 -159 -10 4 -14 -3 -14 -26 0 -24 -4 -31 -20 -31 -19 0 -20 7 -20 170
l0 170 25 0 24 0 4 -137 3 -138 2 143 c1 86 6 142 12 142 6 0 10 -51 10 -134z
m-2396 118 c11 -4 13 -14 9 -35 -5 -25 -2 -31 16 -36 28 -7 27 -21 -4 -35 -22
-10 -25 -16 -19 -40 4 -22 1 -33 -13 -43 -25 -20 -35 -18 -28 4 7 22 -18 46
-40 37 -8 -3 -15 -1 -15 4 0 6 5 10 10 10 6 0 10 7 10 15 0 11 -8 13 -30 9
-32 -7 -42 9 -12 21 16 6 16 8 -3 22 -19 15 -19 15 9 9 27 -7 28 -5 22 19 -4
14 -4 30 -1 35 7 11 65 13 89 4z m1113 -176 c-2 -35 -3 -9 -3 57 0 66 1 94 3
63 2 -32 2 -86 0 -120z m605 -35 c12 28 28 20 25 -13 -5 -37 -14 -48 -23 -26
-5 14 -9 15 -15 4 -5 -7 -8 22 -7 72 l2 85 5 -70 c4 -43 9 -63 13 -52z m2415
65 c-3 -7 -5 -2 -5 12 0 14 2 19 5 13 2 -7 2 -19 0 -25z m53 -61 c-17 -36 -31
-74 -30 -84 1 -10 3 -72 5 -138 l3 -120 -14 130 c-13 126 -26 191 -45 227 -15
29 -10 39 11 21 11 -10 20 -27 20 -40 0 -31 17 -38 25 -11 9 29 46 90 51 85 3
-2 -9 -34 -26 -70z m-81 2 c2 -8 -12 0 -32 16 -19 17 -36 34 -36 39 -1 13 62
-38 68 -55z m-849 -34 c8 -7 24 -15 34 -16 11 -2 21 -10 24 -17 3 -11 0 -12
-16 -3 -25 13 -42 14 -42 2 0 -5 11 -12 25 -15 14 -4 25 -12 25 -19 0 -6 17
-21 37 -32 23 -12 40 -30 43 -45 3 -14 14 -26 25 -28 25 -5 45 -30 45 -56 0
-12 10 -26 23 -32 22 -10 23 -9 23 29 -1 24 4 42 12 44 8 3 12 -8 12 -38 0
-32 6 -47 25 -65 24 -22 33 -43 18 -45 -5 0 -29 -2 -55 -5 -29 -3 -48 -1 -48
6 0 5 -11 10 -25 10 -20 0 -25 5 -25 23 0 13 -8 31 -17 40 -20 18 -84 36 -68
19 6 -5 19 -12 30 -14 28 -5 25 -30 -5 -45 -14 -7 -33 -22 -43 -34 -13 -17
-20 -19 -31 -10 -10 9 -21 7 -44 -6 -26 -15 -34 -16 -73 -3 -56 18 -56 18 -33
35 18 13 17 14 -13 21 -34 7 -41 22 -21 42 9 9 8 12 -5 12 -32 0 -17 15 33 33
38 14 55 15 71 7 23 -13 82 -4 73 11 -3 5 -15 9 -26 9 -21 0 -20 2 7 30 26 27
24 45 -2 19 -7 -7 -17 -8 -25 -3 -7 5 -24 9 -38 9 -15 0 -26 6 -28 18 -2 10 3
17 12 17 9 0 16 5 16 10 0 6 -12 10 -26 10 -31 0 -28 20 4 35 13 6 22 19 22
32 0 33 34 37 70 8z m-825 -15 c-3 -4 -1 -10 3 -12 5 -1 20 -20 34 -41 l26
-38 282 1 c256 0 282 -1 276 -16 -3 -8 -6 -22 -6 -30 0 -9 -4 -13 -10 -9 -5 3
-18 1 -30 -5 -11 -5 -30 -15 -41 -21 -25 -13 -39 1 -39 39 0 20 -4 22 -52 20
l-53 -2 48 -3 c34 -3 47 -8 47 -20 0 -12 -10 -14 -45 -11 l-45 3 0 -67 c0 -58
3 -68 18 -68 15 0 14 -3 -4 -18 -12 -9 -24 -25 -27 -34 -9 -25 -27 -22 -28 5
-1 16 -2 18 -6 5 -3 -12 -14 -18 -34 -18 -16 0 -29 2 -29 4 0 2 -3 11 -6 20
-5 13 1 16 30 16 l36 0 0 73 0 73 -82 -2 c-81 -2 -83 -3 -86 -27 -3 -21 5 -31
37 -52 52 -35 77 -30 73 13 -3 24 1 32 13 32 12 0 16 -8 13 -29 -1 -16 3 -35
10 -44 10 -12 8 -15 -15 -20 -41 -8 -92 14 -159 65 -70 54 -113 99 -142 149
-22 37 -30 95 -12 84 6 -4 8 -10 5 -15z m-1267 3 c-10 -2 -26 -2 -35 0 -10 3
-2 5 17 5 19 0 27 -2 18 -5z m1821 -9 c2 -2 -77 -4 -177 -4 -118 0 -182 4
-182 10 0 10 348 3 359 -6z m815 4 c25 1 76 -29 76 -45 0 -6 16 -28 37 -48 20
-19 33 -38 30 -41 -3 -4 -2 -15 4 -26 8 -15 7 -24 -6 -38 -24 -27 -10 -43 32
-35 29 5 35 3 40 -14 3 -14 14 -21 28 -21 34 0 40 -28 9 -40 -31 -12 -35 -12
-53 -1 -12 8 -12 12 -2 25 8 9 10 16 5 17 -94 5 -128 18 -118 43 4 10 -2 12
-21 8 -16 -3 -30 -14 -35 -28 -11 -27 -44 -22 -37 6 4 17 -5 21 -55 21 -16 0
-28 5 -28 10 0 6 -6 9 -13 6 -20 -8 -41 9 -34 27 5 12 20 16 57 16 38 0 50 4
50 15 0 8 9 15 19 15 30 0 35 19 8 29 -13 5 -27 17 -30 25 -5 12 -14 15 -32
10 -15 -4 -25 -2 -25 5 0 6 5 11 11 11 6 0 9 6 6 13 -7 18 24 49 42 41 9 -4
25 -6 35 -6z m-3587 -30 c-3 -7 -5 -2 -5 12 0 14 2 19 5 13 2 -7 2 -19 0 -25z
m2270 26 c-3 -3 -12 -4 -19 -1 -8 3 -5 6 6 6 11 1 17 -2 13 -5z m-789 -41 l3
-33 -255 0 -256 0 0 30 c0 29 0 29 68 33 37 2 150 3 252 3 l185 -1 3 -32z
m-1762 12 c31 -13 35 -18 30 -42 -5 -26 -2 -30 44 -50 51 -22 62 -41 35 -63
-23 -19 -18 -30 15 -30 17 0 44 -10 61 -22 25 -19 33 -20 50 -10 25 16 67 5
74 -19 4 -10 15 -24 26 -30 12 -6 18 -17 15 -25 -4 -9 4 -18 20 -24 16 -7 24
-16 21 -24 -7 -18 23 -22 328 -36 281 -13 846 -49 860 -55 6 -2 -116 -3 -270
-2 -154 1 -260 5 -235 8 25 3 -47 5 -160 4 -162 -2 -179 -1 -80 4 l125 6 -160
8 c-232 11 -416 26 -450 35 -20 6 -29 14 -27 25 2 11 -4 17 -17 17 -11 0 -22
4 -25 8 -6 10 -68 8 -85 -3 -7 -4 -22 2 -35 14 -28 26 -37 26 -70 0 -32 -25
-47 -18 -21 11 10 11 15 23 11 28 -4 4 -18 -5 -30 -20 -26 -34 -30 -34 -55 -7
-19 20 -23 21 -65 8 -26 -7 -47 -20 -49 -30 -5 -17 -59 -30 -127 -29 -77 1
-59 44 22 54 29 4 57 11 63 15 5 5 22 11 38 15 20 5 27 12 27 30 0 28 32 39
118 39 34 0 52 4 52 12 0 23 -28 37 -60 30 -35 -8 -80 15 -80 41 0 12 -4 14
-12 7 -7 -6 -28 -11 -47 -11 -18 0 -39 -6 -44 -11 -16 -16 -44 -13 -51 4 -3 8
-12 15 -21 15 -27 0 -16 17 17 26 22 7 34 18 41 39 13 40 11 39 65 37 26 -1
54 2 62 8 19 12 14 13 56 -5z m1234 -15 c0 -28 -3 -30 -35 -30 -32 0 -35 2
-35 30 0 28 3 30 35 30 32 0 35 -2 35 -30z m680 -1 c0 -29 -2 -30 -37 -27 -33
3 -38 7 -41 31 -3 26 -1 27 37 27 39 0 41 -1 41 -31z m130 -4 l0 -35 -55 0
-55 0 0 35 0 35 55 0 55 0 0 -35z m1136 19 c-4 -9 -1 -23 6 -32 12 -14 7 -15
-36 -9 -27 4 -167 7 -312 7 l-264 0 0 25 0 25 306 0 c279 0 306 -1 300 -16z
m-2986 -4 c0 -5 -4 -10 -10 -10 -5 0 -10 5 -10 10 0 6 5 10 10 10 6 0 10 -4
10 -10z m443 -10 c35 0 47 -4 47 -15 0 -12 -18 -15 -104 -15 -101 0 -104 1
-99 21 5 19 11 21 57 15 28 -3 72 -6 99 -6z m-238 -20 c4 -6 -18 -10 -59 -10
-37 0 -66 4 -66 10 0 6 26 10 59 10 33 0 63 -4 66 -10z m3255 -15 c0 -8 -9
-19 -20 -25 -11 -6 -20 -20 -20 -30 0 -16 -7 -20 -39 -20 -57 0 -93 17 -118
56 l-22 34 109 0 c90 0 110 -3 110 -15z m-3400 -30 c0 -18 -5 -25 -20 -25 -15
0 -20 7 -20 25 0 18 5 25 20 25 15 0 20 -7 20 -25z m118 19 c15 -4 22 -14 22
-30 0 -21 -5 -24 -37 -24 -62 0 -83 10 -83 36 0 21 5 24 38 24 20 0 47 -3 60
-6z m295 -3 c12 -1 17 -9 17 -31 0 -39 -27 -50 -121 -50 -59 0 -69 3 -69 18 0
14 -2 15 -10 2 -7 -11 -10 -6 -10 22 0 20 6 38 13 41 6 3 46 3 87 1 41 -1 83
-3 93 -3z m197 -27 l0 -36 -52 7 c-64 9 -68 11 -68 35 0 14 9 20 38 23 86 9
82 10 82 -29z m130 7 c0 -24 -5 -29 -31 -35 -17 -3 -44 -6 -60 -6 -26 0 -29 3
-29 35 l0 35 60 0 c59 0 60 0 60 -29z m780 20 l25 -7 -25 -8 c-70 -23 -168
-36 -290 -39 l-135 -2 -3 -80 c-3 -86 -19 -118 -56 -113 -27 4 -33 35 -35 161
l-1 97 248 -1 c136 -1 258 -4 272 -8z m-1310 -37 c0 -31 -3 -35 -22 -32 -18 2
-24 11 -26 36 -3 29 -1 32 22 32 23 0 26 -4 26 -36z m770 6 c0 -28 -3 -30 -35
-30 -32 0 -35 2 -35 30 0 28 3 30 35 30 32 0 35 -2 35 -30z m740 -1 c0 -16 -3
-17 -24 -7 -37 16 -40 35 -5 30 20 -3 29 -10 29 -23z m480 21 c0 -6 -79 -11
-202 -13 l-203 -2 213 -3 c116 -1 212 -6 212 -11 0 -9 -368 -20 -437 -13 -37
4 -43 7 -43 28 l0 24 230 0 c143 0 230 -4 230 -10z m-574 -33 c41 -3 82 -26
118 -66 10 -11 22 -18 27 -16 4 3 10 1 14 -5 4 -6 96 -10 251 -10 136 0 244
-4 244 -9 0 -10 -355 -25 -438 -19 -29 2 -57 10 -61 17 -6 9 -10 5 -15 -13 -6
-24 -9 -25 -51 -20 -42 6 -44 5 -50 -22 -4 -16 -8 -33 -9 -39 -2 -5 -20 14
-40 43 -39 53 -64 64 -86 37 -10 -13 -9 -15 12 -15 33 0 50 -18 37 -42 -11
-21 -49 -25 -49 -5 0 18 -72 46 -103 40 -38 -7 -43 15 -8 35 17 9 31 20 31 24
0 10 -84 -4 -91 -15 -11 -16 -39 0 -39 21 0 21 23 46 33 36 3 -4 13 1 22 10 9
9 21 13 27 10 5 -4 21 0 35 7 22 12 26 11 34 -4 6 -9 19 -17 31 -17 17 0 19 2
7 16 -17 21 5 35 46 28 16 -2 48 -6 71 -7z m-1565 -27 c21 0 7 -28 -16 -32
-21 -5 -25 -1 -25 19 0 19 4 24 16 19 9 -3 20 -6 25 -6z m1259 0 c0 -6 -43
-10 -110 -10 -67 0 -110 4 -110 10 0 6 43 10 110 10 67 0 110 -4 110 -10z
m918 -2 c-4 -10 -58 -14 -229 -18 -123 -3 -219 -7 -214 -8 6 -2 105 -3 220 -2
116 0 216 -4 223 -9 23 -14 -52 -21 -251 -21 -178 0 -189 1 -217 22 -17 12
-30 27 -30 32 0 8 82 12 251 14 202 2 250 0 247 -10z m-2098 -28 c0 -26 -3
-30 -29 -30 -31 0 -41 13 -33 43 3 11 14 17 33 17 26 0 29 -4 29 -30z m470 12
c0 -18 -18 -42 -31 -42 -4 0 -9 14 -11 30 -4 26 -1 30 19 30 15 0 23 -6 23
-18z m266 -23 c18 -18 34 -39 34 -46 0 -8 7 -16 16 -20 8 -3 20 -16 25 -29 4
-13 15 -24 24 -24 19 0 20 -39 1 -46 -8 -3 -28 2 -46 11 -21 11 -35 13 -44 6
-14 -12 -77 -12 -93 1 -6 5 -24 5 -40 1 -15 -4 -31 -7 -35 -8 -3 0 -10 -3 -14
-7 -4 -5 -16 -8 -27 -8 -16 0 -18 5 -13 33 l6 33 -52 2 c-28 1 -53 4 -55 6
-11 10 13 36 34 36 13 0 22 -3 20 -7 -3 -5 8 -8 24 -8 22 0 28 4 23 15 -17 40
-16 50 4 50 11 0 22 8 25 20 5 21 -3 26 -18 11 -6 -5 -20 -12 -32 -16 -19 -5
-23 -2 -23 15 0 20 4 21 111 17 109 -4 110 -4 145 -38z m-667 15 c10 -9 -11
-34 -29 -34 -15 0 -20 7 -20 26 0 22 3 24 23 18 12 -3 24 -8 26 -10z m771 -19
c0 -32 -3 -35 -27 -35 -26 1 -27 1 -9 15 18 14 18 15 -8 26 -36 17 -33 29 9
29 33 0 35 -2 35 -35z m1520 9 c0 -19 -5 -25 -17 -22 -24 4 -28 35 -6 41 10 3
19 5 21 6 1 0 2 -11 2 -25z m220 6 c0 -16 -7 -20 -35 -20 -28 0 -35 4 -35 20
0 16 7 20 35 20 28 0 35 -4 35 -20z m-2480 -30 c0 -22 -4 -40 -10 -40 -5 0
-10 18 -10 40 0 22 5 40 10 40 6 0 10 -18 10 -40z m50 0 c0 -33 -3 -40 -20
-40 -17 0 -20 7 -20 40 0 33 3 40 20 40 17 0 20 -7 20 -40z m890 10 c0 -17 -5
-30 -12 -30 -7 0 -23 -3 -35 -6 -20 -6 -23 -3 -23 24 0 32 10 40 48 41 18 1
22 -4 22 -29z m78 3 c-2 -23 -8 -29 -35 -31 -31 -3 -33 -1 -33 27 0 29 3 31
36 31 33 0 35 -2 32 -27z m1140 -25 c18 -15 50 -37 72 -48 33 -17 40 -26 40
-50 0 -17 -3 -30 -7 -30 -5 1 -31 13 -58 28 -37 20 -49 32 -47 46 3 12 0 16
-8 11 -19 -12 -60 35 -60 68 0 33 -1 33 68 -25z m-2008 12 c0 -25 -4 -30 -25
-30 -21 0 -25 5 -25 30 0 25 4 30 25 30 21 0 25 -5 25 -30z m2320 -10 c13 -9
13 -10 0 -10 -8 0 -25 -3 -37 -6 -17 -5 -23 -2 -23 10 0 18 36 22 60 6z m-386
-49 c7 -10 -471 -25 -496 -16 -10 4 -18 11 -18 16 0 12 507 12 514 0z m-1130
-7 c9 -3 16 -13 16 -21 0 -10 -6 -13 -17 -8 -10 3 -31 9 -46 12 -21 4 -25 8
-15 14 15 10 40 11 62 3z m-806 -21 c2 -9 -7 -13 -28 -13 -17 0 -40 -5 -50
-10 -22 -12 -60 6 -60 28 0 18 132 13 138 -5z m1340 5 c30 -30 2 -50 -39 -27
-16 8 -18 13 -8 25 14 17 31 18 47 2z m632 -14 c14 -14 -127 -24 -335 -24 -82
-1 -168 -4 -191 -9 -39 -7 -40 -7 -36 15 4 23 7 24 156 27 239 6 395 2 406 -9z
m-734 -15 c7 -12 -15 -31 -28 -23 -9 6 1 34 12 34 5 0 12 -5 16 -11z m964 -44
c0 -33 -2 -35 -35 -35 -32 0 -35 2 -35 29 0 23 5 31 23 34 45 9 47 8 47 -28z
m-160 16 c0 -14 -88 -20 -317 -22 -123 -1 -223 -5 -223 -9 0 -4 134 -5 299 -2
200 3 300 2 304 -5 5 -7 -58 -13 -191 -17 -108 -3 -263 -8 -344 -11 l-148 -6
0 35 0 35 98 4 c198 7 522 5 522 -2z m1444 -120 c8 -13 -27 -40 -49 -39 -11 1
-35 -2 -52 -6 -26 -6 -33 -4 -33 8 0 17 35 40 49 32 4 -3 21 -1 37 4 39 11 42
11 48 1z m190 -470 c3 -5 -5 -16 -19 -25 -16 -10 -25 -26 -25 -41 0 -29 -1
-29 -33 -14 -18 8 -36 7 -73 -3 -33 -10 -71 -12 -119 -8 -38 4 -56 8 -40 9
l30 2 -30 16 c-24 13 -51 15 -160 10 -212 -10 -557 -55 -752 -97 -77 -17 -133
-17 -133 0 0 4 10 10 23 13 388 84 610 118 902 136 184 11 423 13 429 2z
m-356 -98 c-10 -2 -26 -2 -35 0 -10 3 -2 5 17 5 19 0 27 -2 18 -5z m-80 -10
c-10 -2 -26 -2 -35 0 -10 3 -2 5 17 5 19 0 27 -2 18 -5z m-75 -10 c-7 -2 -21
-2 -30 0 -10 3 -4 5 12 5 17 0 24 -2 18 -5z m-178 -28 c-212 -38 -602 -133
-733 -179 -24 -9 -40 -12 -38 -7 7 11 128 53 241 84 171 48 564 125 630 125
17 0 -28 -10 -100 -23z m-677 -20 c-7 -8 -210 -46 -215 -41 -7 7 89 35 132 39
73 7 88 7 83 2z m-473 -65 c-4 -6 -10 -8 -14 -5 -5 2 -16 -4 -26 -15 -10 -11
-23 -20 -28 -20 -6 0 0 11 13 25 22 24 68 36 55 15z m-800 -10 c-3 -6 -44 -9
-93 -9 -69 2 -79 3 -47 9 63 11 147 11 140 0z m1425 -235 c0 -2 -13 -11 -30
-20 -38 -19 -40 -11 -2 9 31 17 32 18 32 11z"/>
<path d="M1580 4080 c0 -5 14 -10 32 -10 36 0 35 4 -4 14 -17 4 -28 2 -28 -4z"/>
<path d="M2033 3583 c-10 -10 -13 -14 -6 -9 7 5 28 12 46 16 29 7 30 8 6 9
-15 1 -35 -7 -46 -16z"/>
<path d="M2058 3559 c-10 -5 -18 -15 -18 -20 0 -6 4 -8 9 -4 6 3 10 -3 11 -12
0 -10 3 -39 6 -65 5 -37 9 -45 22 -41 10 4 13 2 8 -5 -5 -8 4 -12 28 -12 l36
0 -2 58 -1 57 -8 -55 c-7 -54 -7 -53 -5 19 1 59 -2 75 -14 77 -8 2 -24 5 -35
8 -11 3 -28 1 -37 -5z"/>
<path d="M1993 3485 c0 -22 2 -30 4 -17 2 12 2 30 0 40 -3 9 -5 -1 -4 -23z"/>
<path d="M2000 3425 c0 -8 4 -15 10 -15 5 0 7 7 4 15 -4 8 -8 15 -10 15 -2 0
-4 -7 -4 -15z"/>
<path d="M1530 3835 c0 -8 2 -15 4 -15 2 0 6 7 10 15 3 8 1 15 -4 15 -6 0 -10
-7 -10 -15z"/>
<path d="M3265 3161 c-3 -6 10 -7 32 -4 50 8 55 13 10 13 -20 0 -38 -4 -42 -9z"/>
<path d="M3383 3153 c9 -2 25 -2 35 0 9 3 1 5 -18 5 -19 0 -27 -2 -17 -5z"/>
<path d="M3478 3143 c50 -6 72 -61 72 -177 0 -50 -4 -97 -8 -104 -6 -9 -39
-10 -151 -2 -79 5 -145 11 -146 12 -1 2 -5 54 -7 116 -4 74 -2 112 5 112 6 0
7 3 4 7 -4 3 -2 13 5 22 7 9 2 7 -11 -5 -21 -20 -22 -29 -22 -144 0 -67 1
-124 3 -126 2 -2 80 -7 173 -10 127 -6 166 -4 161 4 -4 7 -4 12 1 12 4 0 7 46
5 102 -2 83 -7 111 -25 146 -20 38 -25 42 -57 40 l-35 -1 33 -4z"/>
<path d="M3286 3098 c-23 -32 -21 -105 2 -111 16 -4 16 -5 0 -6 -24 -1 -26
-86 -2 -95 42 -16 45 -11 42 97 -2 75 -6 101 -15 100 -7 -2 -13 4 -13 12 0 11
18 15 83 18 l82 3 -82 2 c-74 2 -83 0 -97 -20z"/>
<path d="M3355 2990 c0 -107 1 -110 23 -110 21 0 22 3 22 110 0 108 -1 110
-23 110 -22 0 -22 -2 -22 -110z"/>
<path d="M3420 2985 c0 -93 2 -105 18 -106 9 -1 27 -3 40 -4 21 -2 22 0 22 84
0 119 -5 131 -46 131 l-34 0 0 -105z"/>
<path d="M3514 2965 c0 -55 1 -76 3 -47 2 29 2 74 0 100 -2 26 -3 2 -3 -53z"/>
<path d="M3288 2653 c7 -3 16 -2 19 1 4 3 -2 6 -13 5 -11 0 -14 -3 -6 -6z"/>
<path d="M3373 2653 c9 -2 25 -2 35 0 9 3 1 5 -18 5 -19 0 -27 -2 -17 -5z"/>
<path d="M1130 3635 c0 -5 5 -17 10 -25 5 -8 10 -10 10 -5 0 6 -5 17 -10 25
-5 8 -10 11 -10 5z"/>
<path d="M1150 3585 c0 -5 5 -17 10 -25 5 -8 10 -10 10 -5 0 6 -5 17 -10 25
-5 8 -10 11 -10 5z"/>
<path d="M3352 3464 c-12 -8 -22 -21 -22 -27 0 -7 5 -4 11 6 5 9 21 17 34 17
13 0 29 -8 34 -17 6 -10 11 -13 11 -7 0 10 -31 44 -41 44 -3 0 -15 -7 -27 -16z"/>
<path d="M3357 3434 c-4 -4 -7 -31 -7 -61 0 -50 1 -53 25 -53 25 0 26 2 23 57
-2 43 -7 59 -18 61 -9 1 -19 0 -23 -4z"/>
<path d="M3420 3366 l0 -55 -47 -4 -48 -3 53 -2 52 -2 0 60 c0 33 -2 60 -5 60
-3 0 -5 -25 -5 -54z"/>
<path d="M3322 3385 c0 -16 2 -22 5 -12 2 9 2 23 0 30 -3 6 -5 -1 -5 -18z"/>
<path d="M2720 3256 c0 -8 71 -12 76 -4 3 4 -13 8 -35 8 -23 0 -41 -2 -41 -4z"/>
<path d="M2720 3150 c0 -25 4 -30 25 -30 21 0 25 5 25 30 0 25 -4 30 -25 30
-21 0 -25 -5 -25 -30z"/>
<path d="M2790 3150 c0 -25 4 -30 25 -30 l25 0 -2 -92 -2 -93 -3 88 c-3 79 -6
87 -23 87 -18 0 -20 -7 -20 -84 l0 -85 -47 -4 c-27 -2 -14 -3 27 -3 l75 1 3
120 3 120 -31 2 c-27 2 -30 -1 -30 -27z"/>
<path d="M2720 3030 c0 -79 0 -80 25 -80 25 0 25 1 25 80 0 79 0 80 -25 80
-25 0 -25 -1 -25 -80z"/>
<path d="M2592 2880 c0 -30 2 -50 4 -45 2 6 34 9 79 7 l75 -4 1 38 2 39 7 -40
8 -40 -2 40 -1 40 -77 3 -78 3 -1 -33 c-2 -32 -2 -32 -9 7 -7 39 -7 38 -8 -15z
m58 20 c0 -5 -2 -10 -4 -10 -3 0 -8 5 -11 10 -3 6 -1 10 4 10 6 0 11 -4 11
-10z m17 -37 c-3 -10 -5 -2 -5 17 0 19 2 27 5 18 2 -10 2 -26 0 -35z m45 27
c5 22 5 21 7 -7 1 -23 -3 -33 -14 -33 -10 0 -15 10 -14 33 1 30 1 30 8 7 l8
-25 5 25z"/>
<path d="M1948 3233 c12 -2 32 -2 45 0 12 2 2 4 -23 4 -25 0 -35 -2 -22 -4z"/>
<path d="M2053 3223 c15 -2 37 -2 50 0 12 2 0 4 -28 4 -27 0 -38 -2 -22 -4z"/>
<path d="M1911 3193 c-10 -26 -10 -27 4 -9 8 11 15 23 15 28 0 15 -7 8 -19
-19z"/>
<path d="M2145 3215 c23 -8 125 -11 125 -3 0 4 -30 8 -67 7 -38 0 -63 -2 -58
-4z"/>
<path d="M1960 3192 c-32 -11 5 -17 117 -20 87 -2 130 -6 135 -15 6 -9 8 -9 8
1 0 7 5 10 10 7 6 -3 10 1 10 9 0 8 -6 13 -12 11 -7 -3 -68 -1 -135 3 -67 4
-127 6 -133 4z"/>
<path d="M2274 3085 c0 -60 1 -84 3 -52 2 32 2 81 0 110 -2 29 -3 3 -3 -58z"/>
<path d="M1958 3163 c-13 -3 -18 -15 -18 -39 0 -30 3 -34 25 -34 23 0 25 4 25
40 0 22 -3 39 -7 39 -5 -1 -16 -3 -25 -6z"/>
<path d="M1892 3028 c-1 -98 -5 -137 -14 -140 -9 -3 -8 -10 5 -23 15 -15 47
-19 193 -28 166 -9 176 -9 189 9 16 22 11 34 -13 33 -11 0 -12 -3 -4 -6 60
-24 -88 -27 -293 -6 -33 3 -54 8 -47 10 9 4 11 39 10 141 l-2 137 -5 -135 -5
-135 -6 140 -6 140 -2 -137z"/>
<path d="M2020 3126 c0 -33 2 -35 38 -39 l37 -4 -37 -1 -38 -2 0 -95 0 -95 40
0 40 0 0 135 0 135 -40 0 c-39 0 -40 -1 -40 -34z"/>
<path d="M2120 3120 l0 -40 40 0 40 0 0 40 0 40 -40 0 -40 0 0 -40z"/>
<path d="M1940 2990 c0 -89 0 -90 25 -90 25 0 25 1 25 90 0 89 0 90 -25 90
-25 0 -25 -1 -25 -90z"/>
<path d="M2122 2978 l3 -93 38 -3 37 -3 0 95 0 96 -40 0 -41 0 3 -92z"/>
<path d="M2272 2920 c0 -14 2 -19 5 -12 2 6 2 18 0 25 -3 6 -5 1 -5 -13z"/>
<path d="M2013 2873 c15 -2 37 -2 50 0 12 2 0 4 -28 4 -27 0 -38 -2 -22 -4z"/>
<path d="M1839 2683 c-2 -15 -2 -98 2 -183 l5 -155 2 179 2 178 33 -5 c17 -3
105 -9 195 -13 156 -6 162 -7 162 -28 0 -20 -4 -21 -82 -19 -98 2 -84 -5 20
-9 l72 -4 0 32 0 31 -152 7 c-84 3 -176 9 -204 12 -51 6 -52 6 -55 -23z"/>
<path d="M1933 2643 c26 -2 67 -2 90 0 23 2 2 3 -48 3 -49 0 -68 -1 -42 -3z"/>
<path d="M4880 2975 c-7 -8 -8 -15 -2 -15 5 0 15 7 22 15 7 8 8 15 2 15 -5 0
-15 -7 -22 -15z"/>
<path d="M1191 2894 c0 -11 3 -14 6 -6 3 7 2 16 -1 19 -3 4 -6 -2 -5 -13z"/>
<path d="M3933 2876 l2 -116 28 0 27 0 0 84 c0 80 -1 85 -22 89 l-23 4 23 2
c36 2 26 45 -10 49 l-28 3 3 -115z"/>
<path d="M4010 2846 l0 -86 33 0 32 0 0 83 -1 82 -32 3 -32 3 0 -85z"/>
<path d="M858 2884 c-5 -4 -8 -25 -8 -48 0 -28 3 -37 11 -29 6 6 9 27 7 48 -2
20 -6 33 -10 29z"/>
<path d="M910 2760 c-23 -14 21 -20 47 -7 l25 14 -31 0 c-16 0 -35 -3 -41 -7z"/>
<path d="M2663 2713 c26 -2 67 -2 90 0 23 2 2 3 -48 3 -49 0 -68 -1 -42 -3z"/>
<path d="M2888 2703 c29 -2 74 -2 100 0 26 2 2 3 -53 3 -55 0 -76 -1 -47 -3z"/>
<path d="M4098 2653 c12 -2 30 -2 40 0 9 3 -1 5 -23 4 -22 0 -30 -2 -17 -4z"/>
<path d="M4188 2643 c12 -2 32 -2 45 0 12 2 2 4 -23 4 -25 0 -35 -2 -22 -4z"/>
<path d="M2358 2543 c-6 -27 3 -64 13 -57 12 7 12 74 0 74 -5 0 -11 -8 -13
-17z"/>
<path d="M2636 2528 c-3 -29 -6 -88 -6 -130 0 -71 2 -78 20 -78 18 0 20 8 23
103 l3 102 2 -107 c2 -105 3 -108 25 -108 22 0 22 2 22 128 0 76 -4 130 -10
134 -5 4 -24 8 -41 8 -30 0 -31 -2 -38 -52z"/>
<path d="M3062 2380 c0 -14 2 -19 5 -12 2 6 2 18 0 25 -3 6 -5 1 -5 -13z"/>
<path d="M2683 2260 c0 -25 2 -35 4 -22 2 12 2 32 0 45 -2 12 -4 2 -4 -23z"/>
<path d="M2702 2263 l1 -38 5 35 6 35 6 -40 7 -40 2 38 c1 30 5 37 21 37 16 0
20 -7 20 -37 0 -28 3 -34 10 -23 5 8 10 25 10 38 0 12 5 22 10 22 6 0 10 -15
10 -32 0 -23 3 -29 9 -19 7 11 10 9 14 -10 3 -15 5 -8 6 18 1 37 4 42 29 46
15 2 -17 5 -70 6 l-98 1 2 -37z"/>
<path d="M2906 2292 c7 -4 14 -16 17 -27 4 -15 5 -14 6 8 1 20 -4 27 -16 27
-12 0 -14 -3 -7 -8z"/>
<path d="M2850 2261 c0 -11 5 -23 10 -26 6 -4 10 5 10 19 0 14 -4 26 -10 26
-5 0 -10 -9 -10 -19z"/>
<path d="M3280 2586 c0 -24 3 -26 45 -26 38 0 45 3 45 20 0 14 -7 20 -22 20
-13 0 -33 3 -45 6 -20 5 -23 2 -23 -20z"/>
<path d="M3397 2594 c-20 -20 -5 -34 38 -34 33 0 45 4 45 15 0 9 -9 15 -24 15
-13 0 -31 2 -38 5 -8 3 -17 2 -21 -1z"/>
<path d="M3280 2415 c0 -108 3 -135 14 -135 7 0 28 -3 45 -6 l31 -6 0 141 0
141 -45 0 -45 0 0 -135z"/>
<path d="M3390 2410 l0 -140 45 0 45 0 0 140 0 140 -45 0 -45 0 0 -140z"/>
<path d="M3859 2553 c0 -10 0 -82 1 -159 1 -110 -2 -143 -12 -147 -10 -3 -13
-18 -10 -46 3 -34 8 -41 26 -41 12 0 16 3 10 8 -6 4 -14 19 -18 34 -6 25 -3
28 29 34 20 3 52 4 71 1 l34 -6 0 90 0 89 -35 0 -35 0 0 -80 c0 -74 -1 -80
-21 -80 -20 0 -20 4 -18 135 1 74 -1 138 -4 142 -4 3 -7 12 -7 19 0 10 29 14
118 17 l117 3 -122 2 c-111 2 -123 0 -124 -15z"/>
<path d="M4123 2539 c-1 -12 -1 -20 0 -18 2 2 9 12 16 22 11 14 11 17 -1 17
-7 0 -14 -10 -15 -21z"/>
<path d="M4073 2519 c36 -19 52 -37 22 -25 -13 5 -15 -13 -13 -132 l2 -137 3
128 c2 70 8 127 13 127 5 0 11 -57 13 -127 l3 -128 2 141 2 142 -34 16 c-48
23 -59 19 -13 -5z"/>
<path d="M3963 2513 c15 -2 39 -2 55 0 15 2 2 4 -28 4 -30 0 -43 -2 -27 -4z"/>
<path d="M3914 2484 c3 -9 6 -27 6 -40 0 -21 5 -24 35 -24 34 0 35 1 35 40 l0
40 -41 0 c-33 0 -40 -3 -35 -16z"/>
<path d="M4010 2460 c0 -38 2 -40 30 -40 27 0 30 3 30 34 0 33 -13 46 -46 46
-10 0 -14 -12 -14 -40z"/>
<path d="M3894 2375 c0 -66 1 -92 3 -57 2 34 2 88 0 120 -2 31 -3 3 -3 -63z"/>
<path d="M4152 2350 c-1 -67 -6 -110 -14 -118 -9 -9 -8 -12 5 -12 11 0 17 -8
17 -25 0 -14 3 -25 8 -25 4 0 7 14 7 30 0 17 -3 30 -7 30 -4 0 -9 51 -11 113
l-3 112 -2 -105z"/>
<path d="M4010 2320 l0 -90 30 0 30 0 0 90 0 90 -30 0 -30 0 0 -90z"/>
<path d="M3867 2209 c7 -7 60 -13 150 -15 l138 -3 -124 9 c-69 5 -136 12 -150
15 -20 5 -23 4 -14 -6z"/>
<path d="M3943 2153 c26 -2 68 -2 95 0 26 2 4 3 -48 3 -52 0 -74 -1 -47 -3z"/>
<path d="M4113 2143 c9 -2 23 -2 30 0 6 3 -1 5 -18 5 -16 0 -22 -2 -12 -5z"/>
<path d="M4782 2100 c-7 -11 -19 -20 -28 -20 -8 0 -12 -4 -9 -10 10 -16 41
-12 66 10 21 17 22 21 9 30 -21 13 -23 13 -38 -10z"/>
<path d="M4754 1991 c-7 -35 -21 -49 -61 -60 -24 -7 -25 -10 -10 -16 24 -10
77 14 77 35 0 30 23 41 59 29 18 -6 35 -8 38 -5 12 11 -21 34 -60 40 -36 7
-38 6 -43 -23z"/>
<path d="M4802 1854 c-22 -15 -32 -41 -10 -28 18 11 80 12 103 2 19 -9 19 -8
1 6 -10 8 -16 18 -13 23 9 15 -59 13 -81 -3z"/>
<path d="M2943 2093 c31 -2 83 -2 115 0 31 2 5 3 -58 3 -63 0 -89 -1 -57 -3z"/>
<path d="M2008 2043 c6 -2 18 -2 25 0 6 3 1 5 -13 5 -14 0 -19 -2 -12 -5z"/>
<path d="M1940 2025 c-19 -7 -28 -14 -20 -14 8 0 29 6 45 14 39 17 21 18 -25
0z"/>
<path d="M2103 2033 c15 -2 37 -2 50 0 12 2 0 4 -28 4 -27 0 -38 -2 -22 -4z"/>
<path d="M1960 1765 l0 -225 45 0 45 0 2 212 c2 158 6 212 16 216 9 3 12 -44
12 -212 l0 -216 48 0 49 0 6 213 c6 190 5 213 -10 225 -11 8 -52 12 -115 12
l-98 0 0 -225z"/>
<path d="M3303 2063 c15 -2 39 -2 55 0 15 2 2 4 -28 4 -30 0 -43 -2 -27 -4z"/>
<path d="M4020 1905 c0 -45 0 -45 35 -45 33 0 35 2 35 34 0 38 -2 40 -42 50
-27 6 -28 5 -28 -39z"/>
<path d="M3920 1900 l0 -40 40 0 40 0 0 40 0 40 -40 0 -40 0 0 -40z"/>
<path d="M4020 1730 l0 -120 35 0 35 0 0 120 0 120 -35 0 -35 0 0 -120z"/>
<path d="M1013 1715 c0 -22 2 -30 4 -17 2 12 2 30 0 40 -3 9 -5 -1 -4 -23z"/>
<path d="M3175 1370 c21 -22 41 -40 44 -40 3 0 -13 18 -34 40 -21 22 -41 40
-44 40 -3 0 13 -18 34 -40z"/>
<path d="M2436 1311 c-9 -13 22 -41 38 -35 9 3 23 1 32 -6 11 -10 18 -10 26
-2 7 7 10 13 7 14 -17 11 -100 34 -103 29z"/>
<path d="M1580 1244 l-25 -15 33 7 c27 5 37 1 57 -20 24 -26 45 -34 45 -17 0
5 12 11 28 13 l27 4 -30 8 c-16 4 -38 12 -49 18 -31 17 -60 18 -86 2z"/>
<path d="M4621 4777 c-10 -12 -6 -19 22 -36 19 -12 46 -21 61 -21 15 0 25 -4
22 -9 -4 -5 -3 -17 0 -26 5 -11 9 -13 14 -5 5 8 17 6 44 -6 27 -13 39 -15 48
-6 8 8 8 15 -2 27 -11 13 -10 18 6 30 18 13 18 14 2 20 -23 9 -51 -2 -42 -16
4 -7 1 -10 -7 -7 -8 3 -14 10 -14 16 0 20 -15 26 -28 10 -11 -14 -14 -13 -29
3 -10 11 -17 22 -15 27 4 14 -69 13 -82 -1z"/>
<path d="M2210 4663 l-24 -12 26 -6 c40 -10 57 -3 38 15 -13 13 -20 13 -40 3z"/>
<path d="M680 4661 c0 -11 39 -41 52 -41 14 0 8 23 -9 36 -21 16 -43 18 -43 5z"/>
<path d="M447 4603 c-13 -12 -7 -21 24 -33 38 -16 59 -1 34 24 -17 16 -46 21
-58 9z"/>
<path d="M2243 4415 c0 -27 2 -38 4 -22 2 15 2 37 0 50 -2 12 -4 0 -4 -28z"/>
<path d="M13 4433 c-10 -3 -13 -40 -13 -133 0 -128 0 -128 25 -132 l24 -5 -19
25 c-28 34 -25 46 6 26 21 -14 27 -15 34 -4 5 9 19 11 43 6 30 -6 38 -3 48 15
10 19 8 25 -12 41 l-24 19 49 -6 c27 -4 55 -9 62 -12 8 -3 17 3 21 12 8 21
-20 45 -53 45 -16 0 -24 7 -26 23 -2 15 -11 23 -28 25 -14 2 -30 8 -37 14 -7
5 -20 7 -30 4 -13 -4 -21 1 -28 16 -11 23 -23 29 -42 21z"/>
<path d="M1190 4373 c-8 -3 -23 -12 -32 -20 -10 -9 -27 -13 -40 -10 -13 4 -30
2 -38 -3 -12 -8 -9 -10 12 -10 15 0 30 -4 33 -10 9 -15 17 -12 59 25 38 33 39
40 6 28z"/>
<path d="M296 4243 c-3 -3 -1 -14 5 -24 12 -23 1 -24 -25 -4 -22 17 -76 20
-76 5 0 -5 7 -10 15 -10 18 0 49 -45 40 -60 -8 -13 -68 -13 -82 1 -15 15 -53
2 -53 -19 0 -8 10 -26 22 -39 20 -22 21 -23 2 -23 -10 0 -31 14 -45 31 -22 27
-28 30 -47 20 -11 -6 -28 -8 -36 -5 -14 5 -16 -15 -16 -180 0 -177 1 -186 21
-196 23 -13 78 -4 85 14 8 20 -14 66 -31 66 -12 0 -15 6 -10 19 4 14 -3 25
-25 41 -32 23 -40 50 -15 50 9 0 29 -10 45 -22 25 -18 33 -20 56 -10 14 7 30
9 36 6 10 -6 6 -62 -6 -94 -9 -26 60 -70 110 -70 39 0 47 -5 81 -45 28 -34 44
-45 65 -45 21 0 28 5 28 19 0 11 -4 23 -10 26 -18 11 -10 25 15 25 13 0 35 5
49 11 20 10 29 8 55 -10 32 -23 60 -22 81 4 10 12 5 18 -24 32 -39 18 -44 28
-20 37 25 10 -1 34 -39 38 -24 2 -33 9 -37 28 -4 17 -16 28 -40 36 -19 6 -36
18 -38 25 -3 8 -16 26 -30 42 -21 22 -23 27 -9 27 10 0 28 -7 41 -15 21 -14
24 -14 36 0 19 22 39 18 50 -10 13 -35 68 -67 92 -54 11 6 32 7 49 4 35 -8 37
1 7 32 -29 30 -16 41 18 14 24 -19 28 -19 47 -6 12 8 29 15 38 15 9 0 22 6 28
14 10 12 7 18 -18 30 -16 9 -42 16 -57 16 -22 0 -25 2 -14 15 10 12 10 15 -3
15 -9 0 -19 -4 -22 -10 -3 -5 -15 -10 -27 -10 -17 0 -18 3 -8 15 7 8 9 22 6
31 -5 13 -14 15 -41 10 -34 -7 -35 -6 -29 18 5 23 3 26 -19 26 -13 0 -30 -7
-38 -16 -12 -14 -14 -14 -20 4 -9 25 -45 34 -63 16 -17 -16 -79 -8 -73 10 2 6
22 15 45 20 23 6 42 13 42 16 0 12 -78 42 -90 35 -6 -4 -16 -3 -23 3 -18 13
-44 21 -51 15z m239 -184 c4 -6 5 -12 2 -15 -7 -7 -37 7 -37 17 0 13 27 11 35
-2z m-268 -223 c-4 -9 -11 -16 -17 -16 -15 0 -24 26 -16 47 6 15 8 15 23 1 9
-9 13 -24 10 -32z m141 25 c22 -9 37 -25 47 -48 23 -55 20 -64 -16 -46 -16 8
-28 20 -26 26 9 26 -13 47 -42 41 -16 -3 -31 -1 -35 4 -7 11 22 45 33 39 3 -2
21 -9 39 -16z"/>
<path d="M4878 4033 c7 -3 16 -2 19 1 4 3 -2 6 -13 5 -11 0 -14 -3 -6 -6z"/>
<path d="M4685 4000 c-60 -15 -199 -49 -308 -75 -109 -26 -196 -49 -194 -52 3
-2 121 24 263 58 377 90 402 97 374 97 -14 0 -74 -12 -135 -28z"/>
<path d="M3875 3891 c3 -9 5 -45 6 -80 1 -36 5 -76 9 -90 5 -15 7 19 6 80 -1
78 -4 106 -14 106 -7 0 -10 -7 -7 -16z"/>
<path d="M4148 3863 c7 -3 16 -2 19 1 4 3 -2 6 -13 5 -11 0 -14 -3 -6 -6z"/>
<path d="M4108 3853 c7 -3 16 -2 19 1 4 3 -2 6 -13 5 -11 0 -14 -3 -6 -6z"/>
<path d="M4569 3749 c-16 -18 -27 -34 -24 -37 2 -3 14 7 26 23 18 22 28 26 54
22 44 -7 66 8 25 17 -48 9 -50 9 -81 -25z"/>
<path d="M3498 3713 c12 -2 32 -2 45 0 12 2 2 4 -23 4 -25 0 -35 -2 -22 -4z"/>
<path d="M0 3650 c0 -19 1 -31 3 -29 1 2 8 11 15 20 10 13 9 19 -3 29 -13 11
-15 8 -15 -20z"/>
<path d="M5088 3613 c7 -3 16 -2 19 1 4 3 -2 6 -13 5 -11 0 -14 -3 -6 -6z"/>
<path d="M0 3572 c0 -48 6 -53 21 -15 8 21 6 30 -6 42 -13 14 -15 11 -15 -27z"/>
<path d="M4041 3464 c0 -11 3 -14 6 -6 3 7 2 16 -1 19 -3 4 -6 -2 -5 -13z"/>
<path d="M3937 3382 c-26 -27 -27 -32 -25 -133 l2 -104 5 107 c5 85 10 110 25
127 l19 21 19 -23 20 -22 -31 -3 -32 -3 3 -92 3 -92 33 -3 32 -3 0 96 c0 74
-4 104 -17 126 -10 16 -20 29 -23 29 -4 0 -18 -13 -33 -28z"/>
<path d="M4150 3295 c13 -14 26 -25 28 -25 3 0 -5 11 -18 25 -13 14 -26 25
-28 25 -3 0 5 -11 18 -25z"/>
<path d="M278 3298 c7 -7 12 -18 12 -25 0 -6 11 -23 25 -37 14 -14 25 -21 25
-16 0 15 -54 89 -64 90 -6 0 -5 -5 2 -12z"/>
<path d="M4199 3237 c5 -5 28 -7 52 -5 l44 3 -52 5 c-29 3 -48 1 -44 -3z"/>
<path d="M4158 3223 c7 -3 16 -2 19 1 4 3 -2 6 -13 5 -11 0 -14 -3 -6 -6z"/>
<path d="M4090 3175 c13 -14 26 -25 28 -25 3 0 -5 11 -18 25 -13 14 -26 25
-28 25 -3 0 5 -11 18 -25z"/>
<path d="M26 3001 c24 -44 24 -46 5 -52 -10 -4 -22 -13 -26 -19 -6 -9 -2 -9
15 0 16 9 25 9 33 1 6 -6 17 -11 25 -11 8 0 22 -10 32 -22 17 -21 17 -24 2
-41 -15 -16 -15 -17 1 -12 23 9 30 38 15 70 -8 18 -17 25 -30 22 -14 -4 -24 6
-43 44 l-25 49 37 0 c21 0 52 -9 70 -20 39 -24 89 -90 98 -131 4 -16 15 -34
26 -39 10 -6 19 -20 19 -30 0 -24 8 -25 34 -5 24 18 60 19 74 2 6 -6 14 -25
17 -40 4 -16 17 -32 29 -37 12 -4 30 -26 41 -49 10 -23 23 -41 29 -41 12 0 53
-78 48 -92 -1 -4 5 -8 13 -8 12 0 10 11 -11 51 -15 28 -33 53 -39 55 -7 3 -20
23 -30 44 -10 22 -28 47 -41 55 -31 20 -31 45 -1 45 12 0 74 -9 136 -21 62
-11 115 -18 117 -16 6 6 -212 47 -247 47 -15 0 -38 9 -52 20 -14 11 -29 20
-34 20 -4 0 -16 14 -25 30 -9 17 -24 30 -32 30 -9 0 -4 -11 16 -31 l31 -30
-28 -15 c-34 -18 -32 -18 -39 9 -3 12 -12 31 -21 42 -8 11 -32 44 -53 74 -43
62 -85 87 -158 93 l-52 5 24 -46z"/>
<path d="M153 2940 c16 -5 34 -12 41 -17 6 -4 3 0 -7 10 -11 9 -29 17 -41 16
-17 -1 -16 -2 7 -9z"/>
<path d="M27 2783 c-15 -2 -27 -7 -27 -11 1 -13 47 -57 76 -73 24 -13 29 -21
28 -52 -1 -40 9 -48 26 -18 13 25 -1 64 -29 83 -12 8 -18 17 -16 20 7 7 -16
59 -24 57 -3 -1 -18 -4 -34 -6z"/>
<path d="M627 2520 c19 -11 35 -31 39 -47 7 -28 20 -43 38 -43 6 0 1 6 -10 14
-19 15 -19 15 1 31 11 9 15 14 9 11 -7 -3 -26 8 -44 24 -18 17 -40 30 -49 30
-9 0 -3 -8 16 -20z"/>
<path d="M27 2428 c-20 -14 -27 -28 -27 -51 0 -24 3 -28 10 -17 5 8 17 15 27
15 10 0 17 6 15 14 -1 7 5 19 14 25 13 10 13 14 2 23 -10 9 -20 6 -41 -9z"/>
<path d="M0 1880 c0 -13 11 -13 30 0 12 8 11 10 -7 10 -13 0 -23 -4 -23 -10z"/>
<path d="M6 1581 c-10 -15 33 -20 45 -5 9 11 7 14 -14 14 -14 0 -28 -4 -31 -9z"/>
<path d="M117 1524 c-27 -25 -35 -44 -18 -44 6 0 13 5 16 10 4 6 21 8 41 4 27
-5 34 -3 34 9 0 8 6 17 13 20 6 2 9 7 5 11 -3 4 -15 3 -27 -3 -15 -9 -22 -8
-28 4 -7 12 -13 11 -36 -11z"/>
<path d="M1 1484 c0 -11 3 -14 6 -6 3 7 2 16 -1 19 -3 4 -6 -2 -5 -13z"/>
<path d="M74 1298 c3 -13 6 -28 6 -35 0 -21 87 -28 115 -9 36 23 23 47 -17 32
-27 -10 -32 -9 -45 12 -9 13 -26 22 -40 22 -21 0 -24 -4 -19 -22z"/>
<path d="M348 1023 c18 -2 45 -2 60 0 15 2 0 4 -33 4 -33 0 -45 -2 -27 -4z"/>
<path d="M458 1013 c12 -2 30 -2 40 0 9 3 -1 5 -23 4 -22 0 -30 -2 -17 -4z"/>
<path d="M38 1003 c23 -2 59 -2 80 0 20 2 1 4 -43 4 -44 0 -61 -2 -37 -4z"/>
<path d="M0 722 c0 -9 14 -25 31 -34 26 -15 30 -23 28 -53 -4 -36 13 -66 25
-46 12 19 54 12 78 -14 26 -28 38 -23 62 23 26 51 36 37 10 -15 -25 -50 -30
-78 -16 -87 5 -3 38 4 73 15 52 17 69 19 93 10 26 -10 28 -15 23 -46 -6 -37 3
-49 45 -59 14 -3 40 -17 56 -31 36 -30 42 -31 42 -5 0 25 23 72 43 88 12 10
15 3 20 -44 3 -31 8 -58 11 -61 2 -2 14 1 27 7 21 12 186 7 232 -6 24 -8 3
-34 -27 -34 -11 0 -55 -12 -96 -27 l-75 -28 110 -11 c75 -7 104 -13 90 -19
-11 -4 -114 -45 -228 -92 -261 -104 -361 -151 -328 -152 14 -1 113 37 220 83
387 167 633 256 1039 377 62 18 109 35 103 37 -8 3 -170 -40 -424 -112 -33 -9
-41 -8 -52 7 -7 9 -22 17 -34 17 -11 0 -21 5 -21 10 0 6 -23 10 -51 10 -42 0
-52 3 -56 20 -4 15 -11 18 -28 14 -13 -3 -33 -3 -45 1 -18 6 -19 9 -8 22 10
12 9 18 -7 29 -28 20 -80 27 -105 14 -17 -9 -25 -9 -39 4 -10 9 -24 14 -32 11
-18 -6 -129 -13 -129 -8 0 2 4 12 10 22 7 14 4 23 -14 40 -28 27 -53 19 -76
-24 -7 -14 -21 -25 -29 -24 -9 1 -29 -3 -44 -9 -44 -18 -50 -15 -43 22 8 43
-11 61 -58 52 -20 -4 -37 -2 -41 4 -3 5 -18 10 -32 10 -23 0 -25 3 -20 29 9
45 -14 59 -53 31 l-30 -21 -12 25 c-6 14 -16 27 -22 27 -23 3 -42 -3 -59 -19
-15 -13 -21 -14 -45 -1 -15 8 -30 18 -34 24 -4 5 -19 11 -33 12 -18 1 -25 -3
-25 -15z m220 -80 c0 -5 -7 -17 -15 -28 -14 -19 -14 -19 -15 2 0 11 3 24 7 27
9 10 23 9 23 -1z m94 -53 c-19 -21 -54 -44 -54 -35 0 9 54 56 64 56 5 0 1 -9
-10 -21z m316 -43 c0 -2 -7 -9 -15 -16 -12 -10 -15 -10 -15 4 0 9 7 16 15 16
8 0 15 -2 15 -4z"/>
<path d="M315 459 c-40 -35 -65 -77 -65 -108 0 -15 -10 -23 -38 -30 -21 -6
-46 -17 -57 -25 -13 -10 -31 -13 -51 -10 -18 3 -35 1 -38 -5 -9 -13 -46 -15
-46 -2 0 5 20 27 45 49 25 22 45 43 45 47 0 8 -41 0 -82 -17 l-28 -10 0 -175
c0 -136 3 -174 13 -170 79 33 217 83 325 118 72 24 132 46 132 50 0 14 -111
69 -140 69 -43 0 -37 16 16 48 26 15 56 35 68 44 20 17 19 17 -36 18 -32 0
-58 2 -58 5 0 3 7 16 14 28 16 23 33 107 23 107 -4 0 -22 -14 -42 -31z m39
-268 c6 -9 -85 -23 -94 -15 -2 3 2 9 10 14 19 12 77 13 84 1z"/>
<path d="M4648 183 c-10 -2 -18 -13 -18 -24 0 -16 -7 -19 -40 -19 -49 0 -53
-17 -6 -26 42 -7 79 -44 70 -68 -6 -16 -8 -16 -26 1 -19 17 -21 17 -37 -4
l-17 -21 -52 33 c-67 42 -136 52 -212 29 -30 -8 -73 -18 -95 -21 -22 -3 -47
-11 -55 -18 -8 -7 -31 -20 -50 -28 -32 -14 12 -15 488 -16 l522 -1 0 86 c0 64
-3 85 -12 82 -7 -3 -13 -20 -14 -38 -1 -41 -26 -61 -66 -53 -19 4 -35 0 -47
-11 -18 -17 -20 -16 -46 29 -22 36 -30 43 -41 34 -11 -9 -22 -3 -51 26 -32 32
-38 35 -49 21 -10 -15 -15 -15 -47 -1 -36 15 -65 17 -99 8z m180 -99 c-3 -13
-11 -18 -26 -17 -13 2 -38 -4 -57 -11 -19 -8 -37 -11 -40 -6 -6 10 5 18 65 46
47 22 64 19 58 -12z"/>
<path d="M4990 146 c0 -11 33 -36 47 -36 14 0 14 3 -2 20 -16 18 -45 28 -45
16z"/>
</g>
</svg>